<?xml version="1.0" standalone="no"?>
<!DOCTYPE svg PUBLIC "-//W3C//DTD SVG 1.1//EN" "http://www.w3.org/Graphics/SVG/1.1/DTD/svg11.dtd" >
<svg>
<metadata>
Created by FontForge 20120731 at Tue Apr  5 00:10:25 2016
 By www
TrueType font: Copyright (c) 1991, 1994 ParaGraph. All rights reserved. Technical realization by TeamAXis Corp. Hinted with AXisType ToolKit: Copyright (c) 1992, 1994 by Dmitry Komissarov.
</metadata>
<defs>
<font id="FreeSetExtraCTT" horiz-adv-x="740" >
  <font-face 
    font-family="FreeSetExtraCTT"
    font-weight="400"
    font-stretch="normal"
    units-per-em="1000"
    panose-1="0 0 0 0 0 0 0 0 0 0"
    ascent="800"
    descent="-200"
    x-height="524"
    cap-height="700"
    bbox="-83 -231 1369 926"
    underline-thickness="50"
    underline-position="-75"
    unicode-range="U+0020-2122"
  />
<missing-glyph horiz-adv-x="926" 
d="M57 0v926h812v-926h-812zM812 57v812h-698v-812h698z" />
    <glyph glyph-name=".notdef" horiz-adv-x="926" 
d="M57 0v926h812v-926h-812zM812 57v812h-698v-812h698z" />
    <glyph glyph-name=".null" horiz-adv-x="0" 
 />
    <glyph glyph-name="nonmarkingreturn" horiz-adv-x="233" 
 />
    <glyph glyph-name="space" unicode=" " horiz-adv-x="233" 
 />
    <glyph glyph-name="exclam" unicode="!" horiz-adv-x="426" 
d="M347 700l-39 -441h-190l-39 441h268zM322 0h-218v187h218v-187z" />
    <glyph glyph-name="quotedbl" unicode="&#x22;" horiz-adv-x="556" 
d="M460 395h-150v305h150v-305zM246 395h-150v305h150v-305z" />
    <glyph glyph-name="numbersign" unicode="#" horiz-adv-x="600" 
d="M562 396h-86l-13 -91h69v-126h-86l-25 -179h-136l25 179h-67l-25 -179h-136l25 179h-69v126h86l13 91h-68v126h86l24 178h136l-24 -178h67l24 178h136l-24 -178h68v-126zM340 396h-67l-13 -91h67z" />
    <glyph glyph-name="dollar" unicode="$" horiz-adv-x="632" 
d="M596 227q0 -79 -57 -140.5t-153 -76.5v-130h-132v120q-52 0 -101.5 6t-116.5 26v155q46 -18 92.5 -27.5t90.5 -9.5q62 0 91 17q23 13 23 36q0 27 -32 43q-15 8 -66 21q-89 23 -130 55q-66 51 -66 152q0 89 62.5 144.5t152.5 55.5v118h132v-118q34 0 75.5 -5t91.5 -19
v-157q-46 16 -90 23.5t-80 7.5q-53 0 -75 -20q-16 -14 -16 -39t31 -37q44 -11 67 -17q101 -26 147 -61q59 -45 59 -123z" />
    <glyph glyph-name="percent" unicode="%" horiz-adv-x="961" 
d="M936 196q0 -130 -80 -179q-47 -29 -119 -29q-98 0 -148.5 53.5t-50.5 154.5q0 130 80 179q47 29 119 29q98 0 148.5 -53.5t50.5 -154.5zM769 729l-452 -760h-122l452 760h122zM423 502q0 -130 -80 -179q-47 -29 -119 -29q-98 0 -148.5 53.5t-50.5 154.5q0 130 80 179
q47 29 119 29q98 0 148.5 -53.5t50.5 -154.5zM781 196q0 53 -6 71q-9 27 -38 27t-36.5 -22t-7.5 -76q0 -53 7.5 -75.5t36.5 -22.5t38 26q6 18 6 72zM268 502q0 53 -6 71q-9 27 -38 27t-36.5 -22t-7.5 -76q0 -53 7.5 -75.5t36.5 -22.5t38 26q6 18 6 72z" />
    <glyph glyph-name="ampersand" unicode="&#x26;" horiz-adv-x="963" 
d="M961 0h-335l-43 44q-68 -34 -138 -47q-48 -9 -106 -9q-181 0 -259 75q-53 51 -53 131q0 58 37.5 105t104.5 66v4q-44 24 -71 59q-33 43 -33 95q0 93 77 141t227 48q173 0 248 -52q55 -38 55 -103q0 -49 -48 -98q-52 -53 -137 -79q31 -21 40 -27q22 -15 55 -41
q23 24 36 49q8 16 13 35h250q-16 -68 -54 -127q-32 -49 -76 -89l5 -4q42 -33 82 -67q58 -49 123 -109zM442 536q0 20 -12 34q-18 20 -58 20q-43 0 -63 -20q-14 -14 -14 -34q0 -22 20 -42q16 -16 47 -34l7 -4l13 8q32 20 41 29q19 18 19 43zM443 163l-135 107
q-16 -12 -26 -29q-13 -21 -13 -44q0 -26 20 -43q25 -22 71 -22q27 0 46.5 8.5t36.5 22.5z" />
    <glyph glyph-name="quotesingle" unicode="'" horiz-adv-x="316" 
d="M233 393h-150v305h150v-305z" />
    <glyph glyph-name="parenleft" unicode="(" horiz-adv-x="370" 
d="M354 -140h-183q-61 99 -96 209q-40 124 -40 240q0 99 27 199q34 126 109 250h183q-61 -112 -89 -235q-24 -105 -24 -214q0 -141 39 -272q28 -92 74 -177z" />
    <glyph glyph-name="parenright" unicode=")" horiz-adv-x="370" 
d="M335 309q0 -90 -22 -179q-18 -74 -53 -153q-25 -58 -61 -117h-183q44 81 73 177q40 134 40 272q0 113 -23 214q-28 122 -90 235h183q67 -112 101.5 -227.5t34.5 -221.5z" />
    <glyph glyph-name="asterisk" unicode="*" horiz-adv-x="539" 
d="M499 469l-142 -25l104 -106l-124 -83l-68 130l-72 -130l-123 83l111 107l-145 24l40 148l140 -66l-25 149h151l-23 -149l137 66z" />
    <glyph glyph-name="plus" unicode="+" horiz-adv-x="602" 
d="M554 202h-172v-172h-162v172h-172v162h172v172h162v-172h172v-162z" />
    <glyph glyph-name="comma" unicode="," horiz-adv-x="316" 
d="M295 183l-115 -306h-159l62 306h212z" />
    <glyph glyph-name="hyphen" unicode="-" horiz-adv-x="406" 
d="M358 183h-310v174h310v-174z" />
    <glyph glyph-name="period" unicode="." horiz-adv-x="368" 
d="M293 0h-218v193h218v-193z" />
    <glyph glyph-name="slash" unicode="/" horiz-adv-x="372" 
d="M432 712l-314 -724h-178l314 724h178z" />
    <glyph glyph-name="zero" unicode="0" horiz-adv-x="742" 
d="M719 349q0 -164 -92.5 -262.5t-255.5 -98.5q-164 0 -258 101q-90 97 -90 260q0 169 99 268q95 95 249 95q158 0 253 -100.5t95 -262.5zM457 350q0 108 -11 146q-18 60 -75 60q-59 0 -76 -60q-10 -35 -10 -146q0 -108 10 -144q17 -62 76 -62q57 0 75 61q11 38 11 145z" />
    <glyph glyph-name="one" unicode="1" horiz-adv-x="739" 
d="M589 0h-252v454l-155 -112l-72 183l264 175h215v-700z" />
    <glyph glyph-name="two" unicode="2" 
d="M647 0h-554v197l82 43q136 70 177.5 112t41.5 88q0 43 -30 68q-36 30 -105 30q-38 0 -73.5 -6.5t-78.5 -24.5v183q59 13 108 17.5t94 4.5q192 0 275 -75q63 -57 63 -155q0 -89 -71.5 -168.5t-215.5 -143.5l287 -2v-168z" />
    <glyph glyph-name="three" unicode="3" 
d="M646 194q0 -81 -60 -133q-84 -73 -268 -73q-49 0 -102 6t-122 23v163q44 -13 92 -21.5t85 -8.5q65 0 93 25q18 16 18 38q0 35 -29 52t-81 17h-90v144h89q53 0 77.5 17.5t24.5 41.5q0 29 -19 46q-29 25 -96 25q-38 0 -78 -7.5t-79 -19.5v156q56 14 111.5 20.5t100.5 6.5
q178 0 261 -69q62 -52 62 -128q0 -55 -35 -99t-100 -59q70 -14 107.5 -58t37.5 -105z" />
    <glyph glyph-name="four" unicode="4" 
d="M705 134h-112v-134h-242v134h-321v198l295 366h268v-392h112v-172zM361 296v219l-177 -219h177z" />
    <glyph glyph-name="five" unicode="5" 
d="M650 218q0 -86 -57 -146q-80 -84 -251 -84q-53 0 -110 6.5t-118 23.5v160q29 -8 69.5 -15t78.5 -7q67 0 99 26q26 21 26 55q0 43 -38.5 64t-99.5 21q-35 0 -63.5 -4t-62.5 -12v394h495v-162h-264v-109l69 3q116 0 176 -68q51 -58 51 -146z" />
    <glyph glyph-name="six" unicode="6" 
d="M697 235q0 -108 -83 -177.5t-227 -69.5q-155 0 -248 95q-96 98 -96 261q0 159 90 257q102 111 297 111q45 0 85.5 -3t117.5 -16v-161l-19 4q-50 10 -68 13q-46 7 -88 7q-55 0 -94 -19q-71 -34 -71 -121h4q23 18 51 28q40 14 94 14q112 0 183.5 -61.5t71.5 -161.5z
M466 232q0 44 -24 69t-61 25t-61 -25t-24 -69t24 -69t61 -25t61 25t24 69z" />
    <glyph glyph-name="seven" unicode="7" 
d="M665 507l-252 -507h-301l298 507h-335v193h590v-193z" />
    <glyph glyph-name="eight" unicode="8" 
d="M701 195q0 -80 -61 -133q-85 -74 -270 -74q-186 0 -270 73q-61 53 -61 134q0 69 46 111q37 34 97 47v4q-59 15 -92.5 59.5t-33.5 102.5q0 90 84.5 141.5t229.5 51.5t226 -49q88 -53 88 -144q0 -57 -34 -102t-92 -60v-4q64 -12 103.5 -56.5t39.5 -101.5zM442 498
q0 38 -22 59t-50 21q-29 0 -50.5 -20.5t-21.5 -59.5q0 -38 22 -59t50 -21q29 0 50.5 20.5t21.5 59.5zM449 225q0 39 -21.5 64.5t-57.5 25.5q-35 0 -57 -25t-22 -65q0 -39 21.5 -64.5t57.5 -25.5q35 0 57 25t22 65z" />
    <glyph glyph-name="nine" unicode="9" 
d="M697 365q0 -151 -75 -247q-102 -130 -328 -130q-84 0 -187 19v161l17 -4q28 -7 73.5 -13.5t84.5 -6.5q55 0 94 19q71 34 71 121h-4q-20 -16 -49 -27q-41 -15 -96 -15q-123 0 -193 70q-62 62 -62 153q0 103 73 171q81 76 224 76q167 0 262 -96t95 -251zM444 468
q0 44 -24 69t-61 25t-61 -25t-24 -69t24 -69t61 -25t61 25t24 69z" />
    <glyph glyph-name="colon" unicode=":" horiz-adv-x="368" 
d="M293 330h-218v193h218v-193zM293 0h-218v193h218v-193z" />
    <glyph glyph-name="semicolon" unicode=";" horiz-adv-x="370" 
d="M294 330h-218v193h218v-193zM304 193l-115 -306h-159l62 306h212z" />
    <glyph glyph-name="less" unicode="&#x3c;" horiz-adv-x="600" 
d="M552 40l-504 198v150l504 198v-149l-312 -124l312 -124v-149z" />
    <glyph glyph-name="equal" unicode="=" horiz-adv-x="602" 
d="M554 324h-506v162h506v-162zM554 80h-506v162h506v-162z" />
    <glyph glyph-name="greater" unicode="&#x3e;" horiz-adv-x="634" 
d="M634 238l-504 -198v149l312 124l-312 124v149l504 -198v-150z" />
    <glyph glyph-name="question" unicode="?" horiz-adv-x="576" 
d="M535 544q0 -51 -34 -96q-22 -29 -61 -57q-58 -41 -75 -68.5t-17 -63.5h-200v21q0 71 39 113q52 41 75 61q8 7 14 16.5t6 21.5q0 24 -23.5 35t-62.5 11t-77 -8t-78 -26v171q43 15 90 24q66 13 135 13q127 0 198 -46t71 -122zM357 0h-218v187h218v-187z" />
    <glyph glyph-name="at" unicode="@" horiz-adv-x="837" 
d="M812 414q0 -107 -59 -178q-68 -82 -189 -82q-36 0 -60 14t-28 48h-4q-22 -31 -53 -46.5t-74 -15.5q-66 0 -101 43.5t-35 108.5q0 89 48 156q55 77 145 77q48 0 74 -23q17 -15 24 -41l9 51h129l-38 -217q-1 -3 -1 -13q0 -11 4 -17t17 -6q28 0 51 36.5t23 89.5
q0 94 -70 147.5t-184 53.5q-144 0 -222 -81q-69 -72 -69 -182q0 -96 56 -157q75 -82 235 -82q49 0 91 5t93 24v-113q-59 -15 -108.5 -20.5t-101.5 -5.5q-193 0 -298 109q-91 95 -91 239q0 155 98 257q112 117 314 117q165 0 270 -80.5t105 -215.5zM477 377q0 22 -3 30
q-6 17 -26 17q-12 0 -21 -6q-15 -10 -25.5 -44.5t-10.5 -64.5q0 -22 8.5 -31t21.5 -9q19 0 32 17q8 10 14 30q10 33 10 61z" />
    <glyph glyph-name="A" unicode="A" horiz-adv-x="825" 
d="M840 0h-282l-48 151h-210l-47 -151h-268l245 700h361zM480 315l-73 219h-4l-72 -219h149z" />
    <glyph glyph-name="B" unicode="B" horiz-adv-x="782" 
d="M746 187q0 -115 -111 -160q-67 -27 -178 -27h-407v700h421q145 0 211 -66q48 -48 48 -116q0 -60 -38.5 -104.5t-103.5 -56.5v-4q63 -9 105 -45q53 -46 53 -121zM468 491q0 27 -19 44q-25 23 -76 23h-69v-135h63q60 0 85 26q16 17 16 42zM472 214q0 35 -27 53t-79 18h-62
v-143h68q57 0 82 26q18 19 18 46z" />
    <glyph glyph-name="C" unicode="C" horiz-adv-x="654" 
d="M634 16q-54 -15 -104 -21.5t-92 -6.5q-199 0 -311 102q-107 97 -107 260q0 152 95 248q113 114 330 114q53 0 103 -7q15 -2 68 -12l16 -3v-185q-30 12 -66.5 19.5t-74.5 7.5q-84 0 -136.5 -49.5t-52.5 -126.5q0 -69 34 -115q49 -66 160 -66q28 0 56 5t82 22v-186z" />
    <glyph glyph-name="D" unicode="D" horiz-adv-x="816" 
d="M786 347q0 -136 -66 -225q-90 -122 -286 -122h-384v700h384q192 0 282 -118q70 -92 70 -235zM504 351q0 110 -41 153q-30 31 -91 31h-54v-360h54q58 0 88 28q44 42 44 148z" />
    <glyph glyph-name="E" unicode="E" horiz-adv-x="700" 
d="M668 0h-618v700h611v-165h-343v-101h328v-160h-328v-109h350v-165z" />
    <glyph glyph-name="F" unicode="F" horiz-adv-x="679" 
d="M649 532h-331v-114h321v-168h-321v-250h-268v700h599v-168z" />
    <glyph glyph-name="G" unicode="G" horiz-adv-x="783" 
d="M733 26q-58 -17 -130.5 -27.5t-159.5 -10.5q-235 0 -343 128q-80 95 -80 239q0 61 20 119q34 99 118 158q114 80 307 80q57 0 113.5 -5.5t126.5 -20.5v-189q-29 14 -67 25q-58 16 -118 16q-102 0 -162 -54t-60 -153q0 -86 49 -131q42 -38 107 -38q16 0 25.5 1.5t22.5 4.5
v167h231v-309z" />
    <glyph glyph-name="H" unicode="H" horiz-adv-x="815" 
d="M765 0h-268v258h-179v-258h-268v700h268v-242h179v242h268v-700z" />
    <glyph glyph-name="I" unicode="I" horiz-adv-x="378" 
d="M323 0h-268v700h268v-700z" />
    <glyph glyph-name="J" unicode="J" horiz-adv-x="482" 
d="M432 221q0 -112 -69 -172.5t-189 -60.5q-38 0 -74 4.5t-96 20.5v190q15 -5 37.5 -9t36.5 -4q31 0 51 13q35 23 35 81v416h268v-479z" />
    <glyph glyph-name="K" unicode="K" horiz-adv-x="826" 
d="M814 0h-320l-172 297h-4v-297h-268v700h268v-275h4l165 275h305l-236 -328z" />
    <glyph glyph-name="L" unicode="L" horiz-adv-x="703" 
d="M663 0h-598v700h268v-493h330v-207z" />
    <glyph glyph-name="M" unicode="M" horiz-adv-x="1076" 
d="M1026 0h-240v550h-6l-138 -550h-223l-134 550h-7v-550h-228v700h397l91 -383h5l87 383h396v-700z" />
    <glyph glyph-name="N" unicode="N" horiz-adv-x="864" 
d="M814 0h-395l-134 497h-4v-497h-231v700h399l130 -483h4v483h231v-700z" />
    <glyph glyph-name="O" unicode="O" horiz-adv-x="820" 
d="M800 350q0 -169 -102.5 -265.5t-287.5 -96.5t-287.5 96.5t-102.5 265.5t102.5 265.5t287.5 96.5t287.5 -96.5t102.5 -265.5zM518 350q0 80 -16 124q-26 70 -92 70q-67 0 -92 -69q-16 -44 -16 -125q0 -80 16 -124q26 -70 92 -70q67 0 92 69q16 44 16 125z" />
    <glyph glyph-name="P" unicode="P" horiz-adv-x="792" 
d="M763 449q0 -97 -67 -165q-81 -82 -231 -82h-147v-202h-268v700h410q149 0 230 -77q73 -69 73 -174zM493 451q0 38 -23 59q-31 28 -101 28h-58v-174h59q46 0 73 11q50 21 50 76z" />
    <glyph glyph-name="Q" unicode="Q" horiz-adv-x="820" 
d="M800 350q0 -115 -50 -198q-40 -67 -112 -109l152 -184h-292l-99 129q-157 0 -259 83q-120 97 -120 279q0 169 102.5 265.5t287.5 96.5q184 0 287 -97t103 -265zM518 350q0 80 -16 124q-26 70 -92 70q-67 0 -92 -69q-16 -44 -16 -125q0 -80 16 -124q26 -70 92 -70
q67 0 92 69q16 44 16 125z" />
    <glyph glyph-name="R" unicode="R" horiz-adv-x="788" 
d="M771 0h-280l-26 175q-6 40 -36 57q-21 12 -51 12h-60v-244h-268v700h419q114 0 178 -27q104 -44 104 -160q0 -74 -48 -123q-44 -45 -116 -57q46 -9 78 -33q46 -35 60 -97zM481 471q0 36 -25.5 54.5t-79.5 18.5h-70v-150h66q31 0 45 3q64 14 64 74z" />
    <glyph glyph-name="S" unicode="S" horiz-adv-x="689" 
d="M664 223q0 -89 -56 -147q-85 -88 -286 -88q-65 0 -139 7t-150 26v182q51 -20 112 -33.5t129 -13.5q65 0 92.5 13t27.5 36q0 27 -37 40q-12 4 -77 18q-116 24 -165 54q-90 55 -90 168q0 92 69 150q92 77 292 77q59 0 114 -5.5t118 -18.5v-180q-39 15 -84 24
q-59 12 -124 12q-55 0 -77 -6q-38 -10 -38 -41q0 -26 39 -38q19 -6 48 -11q97 -19 128 -29q71 -23 108 -64q46 -50 46 -132z" />
    <glyph glyph-name="T" unicode="T" horiz-adv-x="760" 
d="M750 493h-236v-493h-268v493h-236v207h740v-207z" />
    <glyph glyph-name="U" unicode="U" horiz-adv-x="832" 
d="M767 275q0 -125 -72 -197q-56 -55 -150 -77q-57 -13 -129 -13q-70 0 -127 13q-96 22 -151 76q-73 72 -73 198v425h268v-415q0 -46 13 -74q20 -43 70 -43t70 42q13 28 13 75v415h268v-425z" />
    <glyph glyph-name="V" unicode="V" horiz-adv-x="798" 
d="M812 700l-259 -700h-317l-250 700h288l129 -419h4l130 419h275z" />
    <glyph glyph-name="W" unicode="W" horiz-adv-x="1111" 
d="M1127 698l-168 -698h-288l-116 456h-4l-110 -456h-294l-163 698h251l84 -446h4l111 446h257l108 -446h4l85 446h239z" />
    <glyph glyph-name="X" unicode="X" horiz-adv-x="835" 
d="M846 0h-312l-128 237h-4l-121 -237h-292l248 359l-218 341h310l101 -207h4l111 207h283l-234 -341z" />
    <glyph glyph-name="Y" unicode="Y" horiz-adv-x="761" 
d="M776 700l-263 -485v-215h-268v215l-260 485h292l108 -293h4l109 293h278z" />
    <glyph glyph-name="Z" unicode="Z" horiz-adv-x="687" 
d="M667 0h-647v213l343 307h-331v180h624v-213l-332 -300h343v-187z" />
    <glyph glyph-name="bracketleft" unicode="[" horiz-adv-x="389" 
d="M357 -140h-324v898h324v-144h-132v-610h132v-144z" />
    <glyph glyph-name="backslash" unicode="\" horiz-adv-x="372" 
d="M432 -12h-177l-315 724h179z" />
    <glyph glyph-name="bracketright" unicode="]" horiz-adv-x="389" 
d="M356 -140h-324v144h132v610h-132v144h324v-898z" />
    <glyph glyph-name="asciicircum" unicode="^" horiz-adv-x="602" 
d="M549 334h-155l-93 198l-93 -198h-155l175 366h146z" />
    <glyph glyph-name="underscore" unicode="_" horiz-adv-x="522" 
d="M522 -171h-522v96h522v-96z" />
    <glyph glyph-name="grave" unicode="`" horiz-adv-x="278" 
d="M253 594h-139l-197 156h237z" />
    <glyph glyph-name="a" unicode="a" horiz-adv-x="650" 
d="M614 0h-230v64h-4q-34 -45 -88 -63q-39 -13 -94 -13q-89 0 -138 46q-45 42 -45 111q0 83 57 127q47 37 131 49q49 7 146 7h35v16q0 36 -42 52q-32 12 -80 12q-26 0 -58 -5q-63 -10 -125 -36v137q58 15 122.5 23.5t124.5 8.5q122 0 196 -42q92 -52 92 -160v-334zM384 199
v29h-13q-65 0 -90.5 -14.5t-25.5 -48.5q0 -22 16 -36t43 -14q29 0 49.5 21t20.5 63z" />
    <glyph glyph-name="b" unicode="b" horiz-adv-x="711" 
d="M691 271q0 -154 -80 -227q-61 -56 -157 -56q-116 0 -166 101h-4v-89h-234v762h252v-305q55 79 160 79q95 0 156 -59q73 -70 73 -206zM421 269q0 43 -10 70q-15 41 -53 41t-53 -40q-10 -26 -10 -71q0 -43 10 -70q15 -41 53 -41t53 40q10 26 10 71z" />
    <glyph glyph-name="c" unicode="c" horiz-adv-x="559" 
d="M532 14q-47 -14 -94 -20t-95 -6q-159 0 -245 82q-79 75 -79 195q0 107 64 178q84 93 257 93q61 0 110 -7q28 -4 78 -17v-150q-30 13 -59.5 18.5t-48.5 5.5q-58 0 -94.5 -33.5t-36.5 -91.5q0 -55 35 -89t95 -34q24 0 49.5 5t63.5 22v-151z" />
    <glyph glyph-name="d" unicode="d" horiz-adv-x="711" 
d="M661 0h-234v89h-4q-50 -101 -166 -101q-95 0 -157 56q-80 73 -80 227q0 135 73 205q62 60 156 60q105 0 160 -79v305h252v-762zM416 269q0 43 -10 70q-15 41 -53 41t-53 -40q-10 -26 -10 -71q0 -43 10 -70q15 -41 53 -41t53 40q10 26 10 71z" />
    <glyph glyph-name="e" unicode="e" horiz-adv-x="633" 
d="M616 201h-350q0 -34 24 -55q33 -28 104 -28q47 0 87 8t97 28v-136q-56 -15 -119 -22.5t-117 -7.5q-183 0 -265 100q-60 73 -60 183q0 121 84 193t219 72q120 0 196 -56q100 -74 100 -234v-45zM396 308v9q0 50 -22 75q-17 19 -43 19q-23 0 -39 -14q-26 -23 -26 -79v-10
h130z" />
    <glyph glyph-name="f" unicode="f" horiz-adv-x="463" 
d="M468 609q-24 7 -50 7q-33 0 -51 -18t-18 -47v-27h107v-150h-107v-374h-252v374h-92v150h92v44q0 74 32 120q54 78 190 78q52 0 98 -7q25 -4 51 -11v-139z" />
    <glyph glyph-name="g" unicode="g" horiz-adv-x="713" 
d="M663 76q0 -80 -16 -130q-25 -78 -91 -122q-83 -55 -227 -55q-92 0 -160 10.5t-113 24.5v169q46 -27 97.5 -40.5t100.5 -13.5q99 0 139 54q26 35 26 93v21q-64 -87 -174 -87q-94 0 -154 59q-70 69 -70 201t65 206q61 70 161 70q59 0 103 -24q53 -29 71 -85h4v97h238v-448z
M419 268q0 51 -12 76q-15 32 -52 32t-50.5 -28.5t-13.5 -79.5t13.5 -79.5t50.5 -28.5t52 32q12 25 12 76z" />
    <glyph glyph-name="h" unicode="h" horiz-adv-x="694" 
d="M644 0h-252v302q0 33 -5 46q-10 25 -40 25q-31 0 -40 -24q-5 -13 -5 -47v-302h-252v754h252v-296q33 46 85 65q35 13 74 13q83 0 133 -43.5t50 -128.5v-364z" />
    <glyph glyph-name="i" unicode="i" horiz-adv-x="352" 
d="M302 579h-252v175h252v-175zM302 0h-252v524h252v-524z" />
    <glyph glyph-name="j" unicode="j" horiz-adv-x="353" 
d="M303 579h-252v175h252v-175zM303 -32q0 -95 -48.5 -147t-144.5 -52q-38 0 -75.5 3.5t-78.5 12.5v153q21 -7 41 -7q28 0 41 15t13 50v528h252v-556z" />
    <glyph glyph-name="k" unicode="k" horiz-adv-x="742" 
d="M741 0h-294l-141 254h-4v-254h-252v754h252v-438h4l143 208h285l-177 -231z" />
    <glyph glyph-name="l" unicode="l" horiz-adv-x="352" 
d="M302 0h-252v753h252v-753z" />
    <glyph glyph-name="m" unicode="m" horiz-adv-x="1034" 
d="M984 0h-252v302q0 41 -10.5 56t-34.5 15q-34 0 -41 -35q-3 -16 -3 -36v-302h-252v302q0 33 -5 46q-9 25 -39 25t-40 -25q-5 -13 -5 -46v-302h-252v524h238v-91h4q28 62 86 87q38 16 89 16t86 -13q51 -19 78 -67q22 35 57 55q44 25 108 25q121 0 163 -78q25 -47 25 -144
v-314z" />
    <glyph glyph-name="n" unicode="n" horiz-adv-x="693" 
d="M643 0h-252v302q0 33 -5 46q-9 25 -39 25t-40 -25q-5 -13 -5 -46v-302h-252v524h238v-91h4q24 59 79 85q38 18 90 18q89 0 135.5 -43.5t46.5 -128.5v-364z" />
    <glyph glyph-name="o" unicode="o" horiz-adv-x="690" 
d="M670 262q0 -127 -87.5 -200.5t-237.5 -73.5t-237.5 73t-87.5 201q0 127 87.5 200.5t237.5 73.5t237.5 -73t87.5 -201zM400 262q0 58 -7 82q-12 42 -48 42t-48 -41q-7 -24 -7 -83q0 -58 7 -82q12 -42 48 -42t48 41q7 24 7 83z" />
    <glyph glyph-name="p" unicode="p" horiz-adv-x="711" 
d="M691 253q0 -135 -73 -205q-62 -60 -156 -60q-105 0 -160 79v-286h-252v743h234v-89h4q50 101 166 101q95 0 157 -56q80 -73 80 -227zM421 255q0 43 -10 70q-15 41 -53 41t-53 -40q-10 -26 -10 -71q0 -43 10 -70q15 -41 53 -41t53 40q10 26 10 71z" />
    <glyph glyph-name="q" unicode="q" horiz-adv-x="711" 
d="M661 -219h-252v286q-55 -79 -160 -79q-95 0 -156 59q-73 70 -73 206q0 154 80 227q61 56 157 56q116 0 166 -101h4v89h234v-743zM416 255q0 43 -10 70q-15 41 -53 41t-53 -40q-10 -26 -10 -71q0 -43 10 -70q15 -41 53 -41t53 40q10 26 10 71z" />
    <glyph glyph-name="r" unicode="r" horiz-adv-x="501" 
d="M489 321q-9 2 -25.5 5t-26.5 3q-59 0 -97 -36t-38 -103v-190h-252v524h236v-119h4q16 54 55 90q44 41 103 41q19 0 41 -5v-210z" />
    <glyph glyph-name="s" unicode="s" horiz-adv-x="568" 
d="M551 176q0 -71 -53 -119q-76 -69 -248 -69q-47 0 -98 6t-115 24v144q41 -18 81 -28q54 -14 105 -14q92 0 92 35q0 24 -48 31q-23 3 -45 6q-99 17 -143 46q-62 40 -62 120q0 81 62 125q74 53 237 53q43 0 86.5 -4.5t102.5 -17.5v-138q-86 28 -165 28q-39 0 -63 -6.5
t-24 -28.5q0 -25 88 -33.5t135 -32.5q75 -39 75 -127z" />
    <glyph glyph-name="t" unicode="t" horiz-adv-x="463" 
d="M455 15q-30 -11 -58 -17q-47 -10 -99 -10q-125 0 -174 67q-35 48 -35 137v181h-89v151h89v128l252 75v-203h114v-151h-114v-148q0 -34 14.5 -51.5t43.5 -17.5q11 0 23.5 2t32.5 8v-151z" />
    <glyph glyph-name="u" unicode="u" horiz-adv-x="693" 
d="M643 0h-238v90q-21 -43 -51 -66q-47 -36 -121 -36q-89 0 -136 44t-47 127v365h252v-303q0 -33 5 -46q9 -25 39 -25t40 25q5 13 5 46v303h252v-524z" />
    <glyph glyph-name="v" unicode="v" horiz-adv-x="632" 
d="M635 524l-159 -524h-323l-156 524h258l66 -345l68 345h246z" />
    <glyph glyph-name="w" unicode="w" horiz-adv-x="1001" 
d="M1007 524l-127 -524h-314l-61 353h-4l-63 -353h-316l-128 524h247l60 -344h4l53 344h303l57 -344h4l55 344h230z" />
    <glyph glyph-name="x" unicode="x" horiz-adv-x="671" 
d="M683 0h-269l-81 176h-4l-82 -176h-259l172 282l-160 242h267l69 -163h4l67 163h249l-146 -238z" />
    <glyph glyph-name="y" unicode="y" horiz-adv-x="625" 
d="M633 524l-177 -545q-32 -99 -86 -148q-68 -62 -184 -62q-37 0 -79.5 5t-83.5 15v146q38 -10 77 -10q38 0 58 17q13 11 18 28l5 17l-194 537h261l72 -330l66 330h247z" />
    <glyph glyph-name="z" unicode="z" horiz-adv-x="613" 
d="M578 0h-543v214l263 156v4h-254v150h527v-209l-249 -161v-4h256v-150z" />
    <glyph glyph-name="braceleft" unicode="{" horiz-adv-x="370" 
d="M354 -140h-132q-54 0 -93.5 39.5t-39.5 98.5v189q0 38 -27 54q-17 10 -46 10v116q46 0 63 26q10 15 10 38v189q0 57 39.5 97.5t93.5 40.5h132v-110h-15q-38 0 -51 -23q-7 -12 -7 -38v-177q0 -54 -46 -81q-33 -19 -70 -19q39 -3 69 -20q47 -27 47 -82v-177q0 -33 14 -47
t44 -14h15v-110z" />
    <glyph glyph-name="bar" unicode="|" horiz-adv-x="228" 
d="M198 -12h-168v764h168v-764z" />
    <glyph glyph-name="braceright" unicode="}" horiz-adv-x="370" 
d="M354 251q-46 0 -63 -26q-10 -15 -10 -38v-189q0 -57 -39.5 -97.5t-93.5 -40.5h-132v110h15q38 0 51 23q7 12 7 38v177q0 54 46 81q33 19 70 19q-39 3 -69 20q-47 27 -47 82v177q0 33 -14 47t-44 14h-15v110h132q54 0 93.5 -39.5t39.5 -98.5v-189q0 -38 27 -54
q17 -10 46 -10v-116z" />
    <glyph glyph-name="asciitilde" unicode="~" horiz-adv-x="646" 
d="M577 233l-4 -5q-38 -47 -50 -57q-36 -30 -83 -30q-25 0 -51 8t-61 24.5t-57 23.5q-37 12 -70 12q-37 0 -63 -23q-20 -18 -30 -45l-39 129q20 40 49 64q38 31 88 31q30 0 68 -12q19 -6 71 -27q38 -15 52 -20q26 -9 44 -9q36 0 66 28q18 16 31 40z" />
    <glyph glyph-name="c128" horiz-adv-x="909" 
d="M889 207q0 -92 -56 -150q-66 -69 -192 -69q-35 0 -69 5.5t-81 19.5v150q18 -8 34 -10.5t30 -2.5q22 0 37 8q29 15 29 55q0 32 -20 49t-50 17q-24 0 -45 -5t-42 -14v-260h-268v493h-186v207h700v-197h-246v-84q43 12 83.5 17t76.5 5q150 0 217 -84q48 -60 48 -150z" />
    <glyph glyph-name="c129" horiz-adv-x="673" 
d="M568 903l-216 -156h-153l109 156h260zM623 500h-305v-500h-268v700h573v-200z" />
    <glyph glyph-name="quotesinglbase" unicode="&#x201a;" horiz-adv-x="316" 
d="M295 183l-115 -306h-159l62 306h212z" />
    <glyph glyph-name="florin" unicode="&#x192;" horiz-adv-x="521" 
d="M482 750l-197 -156h-139l99 156h237zM486 374h-184v-374h-252v525h436v-151z" />
    <glyph glyph-name="quotedblbase" unicode="&#x201e;" horiz-adv-x="558" 
d="M544 183l-116 -306h-159l62 306h213zM289 183l-115 -306h-160l62 306h213z" />
    <glyph glyph-name="ellipsis" unicode="&#x2026;" horiz-adv-x="1002" 
d="M944 0h-218v193h218v-193zM610 0h-218v193h218v-193zM276 0h-218v193h218v-193z" />
    <glyph glyph-name="dagger" unicode="&#x2020;" horiz-adv-x="650" 
d="M612 365h-180v-520h-212v520h-182v163h182v172h212v-172h180v-163z" />
    <glyph glyph-name="daggerdbl" unicode="&#x2021;" horiz-adv-x="648" 
d="M610 25h-181v-182h-212v182h-179v162h179v175h-179v162h179v172h212v-172h181v-162h-181v-175h181v-162z" />
    <glyph glyph-name="circumflex" unicode="&#x2c6;" horiz-adv-x="528" 
d="M478 594h-144l-70 94l-70 -94h-144l114 156h200z" />
    <glyph glyph-name="perthousand" unicode="&#x2030;" horiz-adv-x="1394" 
d="M1369 196q0 -130 -80 -179q-47 -29 -119 -29q-98 0 -148.5 53.5t-50.5 154.5q0 130 80 179q47 29 119 29q98 0 148.5 -53.5t50.5 -154.5zM936 196q0 -130 -80 -179q-47 -29 -119 -29q-98 0 -148.5 53.5t-50.5 154.5q0 130 80 179q47 29 119 29q98 0 148.5 -53.5
t50.5 -154.5zM769 729l-452 -760h-122l452 760h122zM423 502q0 -130 -80 -179q-47 -29 -119 -29q-98 0 -148.5 53.5t-50.5 154.5q0 130 80 179q47 29 119 29q98 0 148.5 -53.5t50.5 -154.5zM1214 196q0 53 -6 71q-9 27 -38 27t-36.5 -22t-7.5 -76q0 -53 7.5 -75.5
t36.5 -22.5t38 26q6 18 6 72zM781 196q0 53 -6 71q-9 27 -38 27t-36.5 -22t-7.5 -76q0 -53 7.5 -75.5t36.5 -22.5t38 26q6 18 6 72zM268 502q0 53 -6 71q-9 27 -38 27t-36.5 -22t-7.5 -76q0 -53 7.5 -75.5t36.5 -22.5t38 26q6 18 6 72z" />
    <glyph glyph-name="Scaron" unicode="&#x160;" horiz-adv-x="1250" 
d="M1220 249q0 -108 -66 -174q-75 -75 -214 -75h-419v510h-130v-120q0 -142 -10 -204q-16 -98 -64 -144q-57 -54 -171 -54q-65 0 -136 17v180q1 0 25 -3.5t34 -3.5q54 0 74 67q14 48 14 149q0 18 -0.5 36t-0.5 37v10v223h633v-202h151q139 0 213 -74q67 -67 67 -175z
M950 249q0 39 -22 60q-28 27 -91 27h-55v-174h54q57 0 85.5 21.5t28.5 65.5z" />
    <glyph glyph-name="guilsinglleft" unicode="&#x2039;" horiz-adv-x="389" 
d="M343 54h-200l-118 216l118 216h200l-90 -216z" />
    <glyph glyph-name="OE" unicode="&#x152;" horiz-adv-x="1216" 
d="M1196 249q0 -108 -66 -174q-75 -75 -214 -75h-419v258h-179v-258h-268v700h268v-242h179v242h268v-202h151q139 0 213 -74q67 -67 67 -175zM926 249q0 39 -22 60q-28 27 -91 27h-55v-174h54q57 0 85.5 21.5t28.5 65.5z" />
    <glyph glyph-name="c141" horiz-adv-x="826" 
d="M666 903l-216 -156h-153l109 156h260zM814 0h-320l-172 297h-4v-297h-268v700h268v-275h4l165 275h305l-236 -328z" />
    <glyph glyph-name="c142" horiz-adv-x="939" 
d="M889 0h-268v193q0 30 -16.5 45.5t-53.5 15.5q-24 0 -45.5 -4.5t-41.5 -14.5v-235h-268v493h-186v207h700v-197h-246v-84q36 9 82 15.5t78 6.5q165 0 228 -89q37 -52 37 -133v-219z" />
    <glyph glyph-name="c143" horiz-adv-x="808" 
d="M758 0h-220v-150h-268v150h-220v700h268v-510h172v510h268v-700z" />
    <glyph glyph-name="c144" horiz-adv-x="696" 
d="M646 -8q0 -92 -28 -142q-45 -81 -165 -81q-39 0 -76 3.5t-78 12.5v153q21 -7 41 -7q28 0 41 15t13 50v291q0 32 -4 43q-10 28 -41 28q-30 0 -40 -28q-5 -14 -5 -43v-287h-252v572h-82v109h82v73h252v-73h200v-109h-200v-129q33 46 85 65q35 13 74 13q83 0 133 -43.5
t50 -128.5v-357z" />
    <glyph glyph-name="quoteleft" unicode="&#x2018;" horiz-adv-x="316" 
d="M295 700l-62 -306h-212l115 306h159z" />
    <glyph glyph-name="quoteright" unicode="&#x2019;" horiz-adv-x="316" 
d="M295 700l-115 -306h-159l62 306h212z" />
    <glyph glyph-name="quotedblleft" unicode="&#x201c;" horiz-adv-x="558" 
d="M544 700l-62 -306h-213l115 306h160zM289 700l-62 -306h-213l116 306h159z" />
    <glyph glyph-name="quotedblright" unicode="&#x201d;" horiz-adv-x="558" 
d="M544 700l-116 -306h-159l62 306h213zM289 700l-115 -306h-160l62 306h213z" />
    <glyph glyph-name="bullet" unicode="&#x2022;" horiz-adv-x="504" 
d="M439 349q0 -77 -55 -132t-132 -55t-132 55t-55 132t55 132t132 55t132 -55t55 -132z" />
    <glyph glyph-name="endash" unicode="&#x2013;" horiz-adv-x="600" 
d="M552 201h-504v162h504v-162z" />
    <glyph glyph-name="emdash" unicode="&#x2014;" horiz-adv-x="934" 
d="M934 195h-934v150h934v-150z" />
    <glyph glyph-name="tilde" unicode="&#x2dc;" horiz-adv-x="540" 
d="M490 735q0 -60 -36.5 -100.5t-100.5 -40.5q-24 0 -41.5 3.5t-37.5 10.5l-32 11q-11 4 -27 8t-26 4q-19 0 -31.5 -9.5t-12.5 -27.5h-95v16q0 64 36 102t93 38q23 0 42 -4q25 -7 36 -10l29 -8q17 -4 36 -9t28 -5q40 0 45 36h95v-15z" />
    <glyph glyph-name="trademark" unicode="&#x2122;" horiz-adv-x="1002" 
d="M981 283h-138v214l-68 -214h-117l-66 214l-2 -214h-138v417h189l75 -218l76 218h189v-417zM377 596h-98v-313h-150v313h-97v104h345v-104z" />
    <glyph glyph-name="scaron" unicode="&#x161;" horiz-adv-x="1022" 
d="M1002 178q0 -74 -44 -118q-60 -60 -193 -60h-355v374h-86v-90q0 -176 -37 -237t-146 -61q-37 0 -69 4t-67 15l5 135q17 -7 40 -7q33 0 44 35q8 26 8 88v48v220h560v-167q47 5 86 5q120 0 187 -47.5t67 -136.5zM749 185q0 22 -11 35q-18 22 -60 22h-21v-118h21q39 0 57 21
q14 16 14 40z" />
    <glyph glyph-name="guilsinglright" unicode="&#x203a;" horiz-adv-x="389" 
d="M364 270l-118 -216h-200l90 216l-90 216h200z" />
    <glyph glyph-name="oe" unicode="&#x153;" horiz-adv-x="1004" 
d="M984 178q0 -74 -44 -118q-60 -60 -193 -60h-355v193h-90v-193h-252v524h252v-181h90v181h252v-167q47 5 86 5q120 0 187 -47.5t67 -136.5zM731 185q0 22 -11 35q-18 22 -60 22h-21v-118h21q39 0 57 21q14 16 14 40z" />
    <glyph glyph-name="c157" horiz-adv-x="733" 
d="M588 750l-197 -156h-139l99 156h237zM723 0h-277l-144 231h-4v-231h-248v524h248v-229h4l143 229h278l-180 -257z" />
    <glyph glyph-name="c158" horiz-adv-x="696" 
d="M646 0h-252v287q0 32 -4 43q-10 28 -41 28q-30 0 -40 -28q-5 -14 -5 -43v-287h-252v572h-82v109h82v73h252v-73h200v-109h-200v-129q33 46 85 65q35 13 74 13q83 0 133 -43.5t50 -128.5v-349z" />
    <glyph glyph-name="Ydieresis" unicode="&#x178;" horiz-adv-x="694" 
d="M644 0h-183v-145h-228v145h-183v524h252v-374h90v374h252v-524z" />
    <glyph glyph-name="nonbreakingspace" unicode="&#xa0;" horiz-adv-x="500" 
 />
    <glyph glyph-name="exclamdown" unicode="&#xa1;" horiz-adv-x="739" 
d="M600 900q-11 -74 -71.5 -113.5t-158.5 -39.5t-158.5 39.5t-71.5 113.5l123 26q0 -33 34 -49q28 -13 73 -13q47 0 77 15t30 47zM753 700l-223 -529q-33 -78 -77 -119q-69 -64 -182 -64q-40 0 -88 6.5t-93 17.5v177q32 -10 52 -13t38 -3q26 0 37 6.5t11 19.5q0 4 -1 13
t-15 36l-226 452h305l98 -303h4l96 303h264z" />
    <glyph glyph-name="cent" unicode="&#xa2;" horiz-adv-x="625" 
d="M511 732q-8 -63 -53 -100q-53 -44 -146 -44q-92 0 -145 44q-46 38 -54 100l106 25q0 -22 16 -37q24 -22 77 -22q40 0 64 13q29 16 29 46zM633 524l-177 -545q-28 -86 -75 -135q-73 -75 -195 -75q-40 0 -76 4.5t-87 14.5v147q38 -10 77 -10q38 0 58 17q13 11 18 28l5 17
l-194 537h261l72 -330l66 330h247z" />
    <glyph glyph-name="sterling" unicode="&#xa3;" horiz-adv-x="482" 
d="M432 221q0 -112 -69 -172.5t-189 -60.5q-38 0 -74 4.5t-96 20.5v190q15 -5 37.5 -9t36.5 -4q31 0 51 13q35 23 35 81v416h268v-479z" />
    <glyph glyph-name="currency" unicode="&#xa4;" horiz-adv-x="600" 
d="M559 152l-61 -61l-53 53q-33 -25 -70.5 -36t-74.5 -11q-34 0 -65 8q-43 11 -81 38l-52 -52l-61 61l52 52q-27 38 -37.5 74.5t-10.5 71.5q0 34 10.5 71.5t37.5 74.5l-52 52l61 61l52 -52q35 24 72 35t74 11q35 0 70.5 -9.5t75.5 -36.5l52 52l61 -61l-52 -52q27 -38 39 -79
q9 -32 9 -67t-8 -64q-12 -44 -41 -81zM405 350q0 49 -28.5 82t-76.5 33q-47 0 -76 -33t-29 -82t28.5 -82t76.5 -33q47 0 76 33t29 82z" />
    <glyph glyph-name="yen" unicode="&#xa5;" horiz-adv-x="665" 
d="M635 500h-317v-500h-268v700h340v110h245v-310z" />
    <glyph glyph-name="brokenbar" unicode="&#xa6;" horiz-adv-x="222" 
d="M195 450h-168v300h168v-300zM195 -12h-168v300h168v-300z" />
    <glyph glyph-name="section" unicode="&#xa7;" horiz-adv-x="632" 
d="M603 272q0 -52 -34 -92q-23 -27 -59 -45q28 -20 44 -45q22 -33 22 -73q0 -75 -46 -120q-69 -68 -237 -68q-57 0 -113 7.5t-117 22.5v147q54 -16 97.5 -24t80.5 -8q50 0 68 4q36 8 36 33q0 24 -40 41q-11 5 -54 20q-117 41 -159 73q-63 48 -63 131q0 47 27.5 85.5
t77.5 56.5q-36 17 -54.5 48t-18.5 70q0 70 47 115q64 61 201 61q69 0 123 -7t96 -19v-144q-59 14 -97.5 19.5t-68.5 5.5q-31 0 -43 -4q-27 -9 -27 -36q0 -24 41 -38l56 -18q106 -37 141 -61q73 -50 73 -138zM416 244q0 26 -25 47q-19 15 -103 50l-37 15q-15 -9 -24.5 -22.5
t-9.5 -27.5q0 -39 50 -67q23 -13 94 -36l28 -9q27 24 27 50z" />
    <glyph glyph-name="dieresis" unicode="&#xa8;" horiz-adv-x="700" 
d="M575 747h-180v156h180v-156zM311 747h-180v156h180v-156zM668 0h-618v700h611v-165h-343v-101h328v-160h-328v-109h350v-165z" />
    <glyph glyph-name="copyright" unicode="&#xa9;" horiz-adv-x="842" 
d="M802 349q0 -150 -111.5 -255.5t-269.5 -105.5t-269.5 105.5t-111.5 255.5t111.5 255.5t269.5 105.5t269.5 -105.5t111.5 -255.5zM663 349q0 101 -70.5 171.5t-171.5 70.5t-171.5 -70.5t-70.5 -171.5t70.5 -171.5t171.5 -70.5t171.5 70.5t70.5 171.5zM550 166
q-30 -9 -58.5 -14t-60.5 -5q-99 0 -151.5 57t-52.5 152q0 89 54.5 141.5t149.5 52.5q31 0 56 -3t60 -13v-114q-17 10 -37 14.5t-35 4.5q-33 0 -52 -16q-26 -22 -26 -70q0 -42 18 -66q22 -29 60 -29q40 0 75 23v-115z" />
    <glyph glyph-name="ordfeminine" unicode="&#xaa;" horiz-adv-x="679" 
d="M649 16q-46 -12 -98.5 -20t-102.5 -8q-209 0 -321 115q-97 99 -97 247q0 83 31 154q40 92 125 144q105 64 269 64q38 0 79.5 -3.5t99.5 -15.5l15 -3v-185q-31 13 -75.5 22.5t-81.5 9.5q-87 0 -137 -42q-32 -27 -46 -69h242v-143h-242q14 -51 60.5 -82t116.5 -31
q41 0 79 7t84 25v-186z" />
    <glyph glyph-name="guillemotleft" unicode="&#xab;" horiz-adv-x="650" 
d="M604 54h-193l-114 216l113 216h194l-90 -216zM332 54h-193l-114 216l113 216h194l-90 -216z" />
    <glyph glyph-name="logicalnot" unicode="&#xac;" horiz-adv-x="736" 
d="M676 173h-125v117h-491v123h616v-240z" />
    <glyph glyph-name="minus" unicode="&#xad;" horiz-adv-x="406" 
d="M358 183h-310v174h310v-174z" />
    <glyph glyph-name="registered" unicode="&#xae;" horiz-adv-x="842" 
d="M803 350q0 -150 -112 -256t-270 -106q-159 0 -270.5 105.5t-111.5 256.5q0 150 112 256t270 106q159 0 270.5 -105.5t111.5 -256.5zM666 350q0 101 -72 173t-173 72t-173 -72t-72 -173t72 -173t173 -72t173 72t72 173zM591 200h-125l-11 78q-3 17 -14 24t-24 7h-28v-109
h-119v312h186q52 0 80 -12q45 -20 45 -71q0 -36 -19.5 -55.5t-49.5 -24.5q21 -2 37 -18.5t21 -39.5zM462 410q0 21 -14 26.5t-32 5.5h-32v-66h29q25 0 37 8.5t12 25.5z" />
    <glyph glyph-name="macron" unicode="&#xaf;" horiz-adv-x="604" 
d="M554 750h-209v157h209v-157zM259 750h-209v157h209v-157zM436 0h-268v700h268v-700z" />
    <glyph glyph-name="degree" unicode="&#xb0;" horiz-adv-x="404" 
d="M364 550q0 -67 -47.5 -114.5t-114.5 -47.5t-114.5 47.5t-47.5 114.5t47.5 114.5t114.5 47.5t114.5 -47.5t47.5 -114.5zM274 550q0 30 -21 51t-51 21t-51 -21t-21 -51t21 -51t51 -21t51 21t21 51z" />
    <glyph glyph-name="plusminus" unicode="&#xb1;" horiz-adv-x="600" 
d="M552 291h-171v-81h-162v81h-171v162h171v81h162v-81h171v-162zM552 30h-504v162h504v-162z" />
    <glyph glyph-name="twosuperior" unicode="&#xb2;" horiz-adv-x="378" 
d="M323 0h-268v700h268v-700z" />
    <glyph glyph-name="threesuperior" unicode="&#xb3;" horiz-adv-x="352" 
d="M302 579h-252v175h252v-175zM302 0h-252v524h252v-524z" />
    <glyph glyph-name="acute" unicode="&#xb4;" horiz-adv-x="528" 
d="M493 378h-195v-378h-248v525h229v86h214v-233z" />
    <glyph glyph-name="mu" unicode="&#xb5;" horiz-adv-x="685" 
d="M639 0h-238v90q-22 -40 -38 -55q-27 -26 -63 -35v-222h-254v743h252v-300q0 -33 5 -46q9 -25 39 -25t40 25q5 13 5 46v300h252v-521z" />
    <glyph glyph-name="paragraph" unicode="&#xb6;" horiz-adv-x="622" 
d="M582 -159h-139v755h-65v-755h-138v509h-17q-85 0 -142 42q-63 47 -63 130q0 110 92 152q57 26 155 26h317v-859z" />
    <glyph glyph-name="periodcentered" unicode="&#xb7;" horiz-adv-x="314" 
d="M266 183h-218v193h218v-193z" />
    <glyph glyph-name="periodcentered" unicode="&#x2219;" horiz-adv-x="314" 
d="M266 183h-218v193h218v-193z" />
    <glyph glyph-name="cedilla" unicode="&#xb8;" horiz-adv-x="633" 
d="M565 597h-181v157h181v-157zM300 597h-181v157h181v-157zM616 201h-350q0 -34 24 -55q33 -28 104 -28q47 0 87 8t97 28v-136q-56 -15 -119 -22.5t-117 -7.5q-183 0 -265 100q-60 73 -60 183q0 109 72 182q82 83 229 83t222.5 -78.5t75.5 -225.5v-31zM396 308v9
q0 50 -22 75q-17 19 -43 19q-23 0 -39 -14q-26 -23 -26 -79v-10h130z" />
    <glyph glyph-name="onesuperior" unicode="&#xb9;" horiz-adv-x="1210" 
d="M1165 504q0 -83 -30 -133q-45 -75 -150 -75t-149 74q-31 52 -31 134q0 83 30 133q45 75 150 75t149 -74q31 -52 31 -134zM1165 29h-360v174h360v-174zM738 0h-356l-121 497l-3 -497h-208v700h359l117 -483h4v483h208v-700zM1025 504v18q0 42 -5 56q-8 24 -35 24
q-25 0 -32.5 -20.5t-7.5 -59.5v-18q0 -55 3 -67q8 -31 37 -31q28 0 36 31q4 16 4 67z" />
    <glyph glyph-name="ordmasculine" unicode="&#xba;" horiz-adv-x="563" 
d="M536 20q-52 -18 -102.5 -25t-95.5 -7q-158 0 -243 84q-76 75 -76 197q0 113 76 186q85 81 240 81q60 0 121 -12q42 -8 76 -20v-136q-28 16 -59 24.5t-64 8.5q-52 0 -88 -22t-48 -65h189v-94h-189q6 -45 40 -71t89 -26q69 0 134 35v-138z" />
    <glyph glyph-name="guillemotright" unicode="&#xbb;" horiz-adv-x="649" 
d="M624 270l-113 -216h-193l90 216l-90 216h193zM352 270l-113 -216h-193l90 216l-90 216h193z" />
    <glyph glyph-name="onequarter" unicode="&#xbc;" horiz-adv-x="353" 
d="M303 579h-252v175h252v-175zM303 -32q0 -95 -48.5 -147t-144.5 -52q-38 0 -75.5 3.5t-78.5 12.5v153q21 -7 41 -7q28 0 41 15t13 50v528h252v-556z" />
    <glyph glyph-name="onehalf" unicode="&#xbd;" horiz-adv-x="687" 
d="M662 223q0 -89 -56 -147q-85 -88 -285 -88q-65 0 -139 7t-150 26v182q51 -20 112 -33.5t129 -13.5q65 0 92.5 13t27.5 36q0 27 -37 40q-12 4 -77 18q-116 24 -164 54q-90 55 -90 168q0 93 68 150q91 77 292 77q59 0 113.5 -5.5t118.5 -18.5v-180q-39 15 -84 24
q-59 12 -124 12q-55 0 -77 -6q-38 -10 -38 -41q0 -26 39 -38q19 -6 48 -11q91 -17 127 -29q73 -24 109 -64q45 -49 45 -132z" />
    <glyph glyph-name="threequarters" unicode="&#xbe;" horiz-adv-x="568" 
d="M551 176q0 -71 -53 -119q-76 -69 -248 -69q-47 0 -98 6t-115 24v144q41 -18 81 -28q54 -14 105 -14q92 0 92 35q0 24 -48 31q-23 3 -45 6q-99 17 -143 46q-62 40 -62 120q0 81 62 125q74 53 237 53q43 0 86.5 -4.5t102.5 -17.5v-138q-86 28 -165 28q-39 0 -63 -6.5
t-24 -28.5q0 -25 88 -33.5t135 -32.5q75 -39 75 -127z" />
    <glyph glyph-name="questiondown" unicode="&#xbf;" horiz-adv-x="456" 
d="M451 579h-189v175h189v-175zM194 579h-189v175h189v-175zM354 0h-252v524h252v-524z" />
    <glyph glyph-name="Agrave" unicode="&#xc0;" horiz-adv-x="825" 
d="M840 0h-282l-48 151h-210l-47 -151h-268l245 700h361zM480 315l-73 219h-4l-72 -219h149z" />
    <glyph glyph-name="Agrave" unicode="&#x410;" horiz-adv-x="825" 
d="M840 0h-282l-48 151h-210l-47 -151h-268l245 700h361zM480 315l-73 219h-4l-72 -219h149z" />
    <glyph glyph-name="Aacute" unicode="&#xc1;" horiz-adv-x="782" 
d="M746 214q0 -89 -56 -143q-73 -71 -233 -71h-407v700h623v-175h-355v-97h163q135 0 205 -67q60 -58 60 -147zM472 216q0 30 -21 50q-25 24 -67 24h-73v-148h78q38 0 60.5 20.5t22.5 53.5z" />
    <glyph glyph-name="Aacute" unicode="&#x411;" horiz-adv-x="782" 
d="M746 214q0 -89 -56 -143q-73 -71 -233 -71h-407v700h623v-175h-355v-97h163q135 0 205 -67q60 -58 60 -147zM472 216q0 30 -21 50q-25 24 -67 24h-73v-148h78q38 0 60.5 20.5t22.5 53.5z" />
    <glyph glyph-name="Acircumflex" unicode="&#xc2;" horiz-adv-x="782" 
d="M746 187q0 -115 -111 -160q-67 -27 -178 -27h-407v700h421q145 0 211 -66q48 -48 48 -116q0 -60 -38.5 -104.5t-103.5 -56.5v-4q63 -9 105 -45q53 -46 53 -121zM468 491q0 27 -19 44q-25 23 -76 23h-69v-135h63q60 0 85 26q16 17 16 42zM472 214q0 35 -27 53t-79 18h-62
v-143h68q57 0 82 26q18 19 18 46z" />
    <glyph glyph-name="Acircumflex" unicode="&#x412;" horiz-adv-x="782" 
d="M746 187q0 -115 -111 -160q-67 -27 -178 -27h-407v700h421q145 0 211 -66q48 -48 48 -116q0 -60 -38.5 -104.5t-103.5 -56.5v-4q63 -9 105 -45q53 -46 53 -121zM468 491q0 27 -19 44q-25 23 -76 23h-69v-135h63q60 0 85 26q16 17 16 42zM472 214q0 35 -27 53t-79 18h-62
v-143h68q57 0 82 26q18 19 18 46z" />
    <glyph glyph-name="Atilde" unicode="&#xc3;" horiz-adv-x="673" 
d="M623 500h-305v-500h-268v700h573v-200z" />
    <glyph glyph-name="Atilde" unicode="&#x413;" horiz-adv-x="673" 
d="M623 500h-305v-500h-268v700h573v-200z" />
    <glyph glyph-name="Adieresis" unicode="&#xc4;" horiz-adv-x="887" 
d="M867 -155h-268v155h-311v-155h-268v342h54q62 62 83 148q13 53 13 141v224h623v-513h74v-342zM525 187v333h-119v-85q0 -81 -12 -130q-15 -63 -57 -118h188z" />
    <glyph glyph-name="Adieresis" unicode="&#x414;" horiz-adv-x="887" 
d="M867 -155h-268v155h-311v-155h-268v342h54q62 62 83 148q13 53 13 141v224h623v-513h74v-342zM525 187v333h-119v-85q0 -81 -12 -130q-15 -63 -57 -118h188z" />
    <glyph glyph-name="Aring" unicode="&#xc5;" horiz-adv-x="700" 
d="M668 0h-618v700h611v-165h-343v-101h328v-160h-328v-109h350v-165z" />
    <glyph glyph-name="Aring" unicode="&#x415;" horiz-adv-x="700" 
d="M668 0h-618v700h611v-165h-343v-101h328v-160h-328v-109h350v-165z" />
    <glyph glyph-name="AE" unicode="&#xc6;" horiz-adv-x="1234" 
d="M1229 0h-320l-157 317h-6v-317h-258v317h-6l-157 -317h-320l250 372l-220 328h290l157 -295h6v295h258v-295h6l157 295h290l-220 -328z" />
    <glyph glyph-name="AE" unicode="&#x416;" horiz-adv-x="1234" 
d="M1229 0h-320l-157 317h-6v-317h-258v317h-6l-157 -317h-320l250 372l-220 328h290l157 -295h6v295h258v-295h6l157 295h290l-220 -328z" />
    <glyph glyph-name="Ccedilla" unicode="&#xc7;" horiz-adv-x="689" 
d="M672 199q0 -84 -65 -137q-91 -74 -297 -74q-85 0 -142.5 8t-127.5 25v182q53 -21 117 -34t121 -13q62 0 91 23q21 17 21 41q0 28 -19 45q-26 23 -85 23h-130v138h127q39 0 62 8q40 14 40 51q0 35 -43 49q-30 10 -77 10q-51 0 -101.5 -8.5t-105.5 -27.5v177q119 27 265 27
q190 0 271 -73q56 -51 56 -131q0 -54 -34 -96q-38 -46 -102 -55v-4q66 -6 110 -45q48 -43 48 -109z" />
    <glyph glyph-name="Ccedilla" unicode="&#x417;" horiz-adv-x="689" 
d="M672 199q0 -84 -65 -137q-91 -74 -297 -74q-85 0 -142.5 8t-127.5 25v182q53 -21 117 -34t121 -13q62 0 91 23q21 17 21 41q0 28 -19 45q-26 23 -85 23h-130v138h127q39 0 62 8q40 14 40 51q0 35 -43 49q-30 10 -77 10q-51 0 -101.5 -8.5t-105.5 -27.5v177q119 27 265 27
q190 0 271 -73q56 -51 56 -131q0 -54 -34 -96q-38 -46 -102 -55v-4q66 -6 110 -45q48 -43 48 -109z" />
    <glyph glyph-name="Egrave" unicode="&#xc8;" horiz-adv-x="862" 
d="M812 0h-268v392h-4l-177 -392h-313v700h268v-400h4l177 400h313v-700z" />
    <glyph glyph-name="Egrave" unicode="&#x418;" horiz-adv-x="862" 
d="M812 0h-268v392h-4l-177 -392h-313v700h268v-400h4l177 400h313v-700z" />
    <glyph glyph-name="Eacute" unicode="&#xc9;" horiz-adv-x="862" 
d="M661 900q-11 -74 -71.5 -113.5t-158.5 -39.5t-158.5 39.5t-71.5 113.5l123 26q0 -33 34 -49q28 -13 73 -13q47 0 77 15t30 47zM812 0h-268v392h-4l-177 -392h-313v700h268v-400h4l177 400h313v-700z" />
    <glyph glyph-name="Eacute" unicode="&#x419;" horiz-adv-x="862" 
d="M661 900q-11 -74 -71.5 -113.5t-158.5 -39.5t-158.5 39.5t-71.5 113.5l123 26q0 -33 34 -49q28 -13 73 -13q47 0 77 15t30 47zM812 0h-268v392h-4l-177 -392h-313v700h268v-400h4l177 400h313v-700z" />
    <glyph glyph-name="Ecircumflex" unicode="&#xca;" horiz-adv-x="826" 
d="M814 0h-320l-172 297h-4v-297h-268v700h268v-275h4l165 275h305l-236 -328z" />
    <glyph glyph-name="Ecircumflex" unicode="&#x41a;" horiz-adv-x="826" 
d="M814 0h-320l-172 297h-4v-297h-268v700h268v-275h4l165 275h305l-236 -328z" />
    <glyph glyph-name="Edieresis" unicode="&#xcb;" horiz-adv-x="839" 
d="M789 0h-268v510h-130v-120q0 -142 -10 -204q-16 -98 -64 -144q-57 -54 -171 -54q-65 0 -136 17v180q1 0 25 -3.5t34 -3.5q54 0 74 67q14 48 14 149q0 18 -0.5 36t-0.5 37v10v223h633v-700z" />
    <glyph glyph-name="Edieresis" unicode="&#x41b;" horiz-adv-x="839" 
d="M789 0h-268v510h-130v-120q0 -142 -10 -204q-16 -98 -64 -144q-57 -54 -171 -54q-65 0 -136 17v180q1 0 25 -3.5t34 -3.5q54 0 74 67q14 48 14 149q0 18 -0.5 36t-0.5 37v10v223h633v-700z" />
    <glyph glyph-name="Igrave" unicode="&#xcc;" horiz-adv-x="1076" 
d="M1026 0h-240v550h-6l-138 -550h-223l-134 550h-7v-550h-228v700h397l91 -383h5l87 383h396v-700z" />
    <glyph glyph-name="Igrave" unicode="&#x41c;" horiz-adv-x="1076" 
d="M1026 0h-240v550h-6l-138 -550h-223l-134 550h-7v-550h-228v700h397l91 -383h5l87 383h396v-700z" />
    <glyph glyph-name="Iacute" unicode="&#xcd;" horiz-adv-x="815" 
d="M765 0h-268v258h-179v-258h-268v700h268v-242h179v242h268v-700z" />
    <glyph glyph-name="Iacute" unicode="&#x41d;" horiz-adv-x="815" 
d="M765 0h-268v258h-179v-258h-268v700h268v-242h179v242h268v-700z" />
    <glyph glyph-name="Icircumflex" unicode="&#xce;" horiz-adv-x="820" 
d="M800 350q0 -169 -102.5 -265.5t-287.5 -96.5t-287.5 96.5t-102.5 265.5t102.5 265.5t287.5 96.5t287.5 -96.5t102.5 -265.5zM518 350q0 80 -16 124q-26 70 -92 70q-67 0 -92 -69q-16 -44 -16 -125q0 -80 16 -124q26 -70 92 -70q67 0 92 69q16 44 16 125z" />
    <glyph glyph-name="Icircumflex" unicode="&#x41e;" horiz-adv-x="820" 
d="M800 350q0 -169 -102.5 -265.5t-287.5 -96.5t-287.5 96.5t-102.5 265.5t102.5 265.5t287.5 96.5t287.5 -96.5t102.5 -265.5zM518 350q0 80 -16 124q-26 70 -92 70q-67 0 -92 -69q-16 -44 -16 -125q0 -80 16 -124q26 -70 92 -70q67 0 92 69q16 44 16 125z" />
    <glyph glyph-name="Idieresis" unicode="&#xcf;" horiz-adv-x="811" 
d="M761 0h-268v510h-175v-510h-268v700h711v-700z" />
    <glyph glyph-name="Idieresis" unicode="&#x41f;" horiz-adv-x="811" 
d="M761 0h-268v510h-175v-510h-268v700h711v-700z" />
    <glyph glyph-name="Eth" unicode="&#xd0;" horiz-adv-x="792" 
d="M763 449q0 -97 -67 -165q-81 -82 -231 -82h-147v-202h-268v700h410q149 0 230 -77q73 -69 73 -174zM493 451q0 38 -23 59q-31 28 -101 28h-58v-174h59q46 0 73 11q50 21 50 76z" />
    <glyph glyph-name="Eth" unicode="&#x420;" horiz-adv-x="792" 
d="M763 449q0 -97 -67 -165q-81 -82 -231 -82h-147v-202h-268v700h410q149 0 230 -77q73 -69 73 -174zM493 451q0 38 -23 59q-31 28 -101 28h-58v-174h59q46 0 73 11q50 21 50 76z" />
    <glyph glyph-name="Ntilde" unicode="&#xd1;" horiz-adv-x="654" 
d="M634 16q-54 -15 -104 -21.5t-92 -6.5q-199 0 -311 102q-107 97 -107 260q0 152 95 248q113 114 330 114q53 0 103 -7q15 -2 68 -12l16 -3v-185q-30 12 -66.5 19.5t-74.5 7.5q-84 0 -136.5 -49.5t-52.5 -126.5q0 -69 34 -115q49 -66 160 -66q28 0 56 5t82 22v-186z" />
    <glyph glyph-name="Ntilde" unicode="&#x421;" horiz-adv-x="654" 
d="M634 16q-54 -15 -104 -21.5t-92 -6.5q-199 0 -311 102q-107 97 -107 260q0 152 95 248q113 114 330 114q53 0 103 -7q15 -2 68 -12l16 -3v-185q-30 12 -66.5 19.5t-74.5 7.5q-84 0 -136.5 -49.5t-52.5 -126.5q0 -69 34 -115q49 -66 160 -66q28 0 56 5t82 22v-186z" />
    <glyph glyph-name="Ograve" unicode="&#xd2;" horiz-adv-x="760" 
d="M750 493h-236v-493h-268v493h-236v207h740v-207z" />
    <glyph glyph-name="Ograve" unicode="&#x422;" horiz-adv-x="760" 
d="M750 493h-236v-493h-268v493h-236v207h740v-207z" />
    <glyph glyph-name="Oacute" unicode="&#xd3;" horiz-adv-x="739" 
d="M753 700l-223 -529q-33 -78 -77 -119q-69 -64 -182 -64q-40 0 -88 6.5t-93 17.5v177q32 -10 52 -13t38 -3q26 0 37 6.5t11 19.5q0 4 -1 13t-15 36l-226 452h305l98 -303h4l96 303h264z" />
    <glyph glyph-name="Oacute" unicode="&#x423;" horiz-adv-x="739" 
d="M753 700l-223 -529q-33 -78 -77 -119q-69 -64 -182 -64q-40 0 -88 6.5t-93 17.5v177q32 -10 52 -13t38 -3q26 0 37 6.5t11 19.5q0 4 -1 13t-15 36l-226 452h305l98 -303h4l96 303h264z" />
    <glyph glyph-name="Ocircumflex" unicode="&#xd4;" horiz-adv-x="1000" 
d="M980 371q0 -129 -83.5 -200t-221.5 -71h-41v-112h-268v112h-41q-138 0 -220 69q-85 72 -85 202q0 120 76 193q82 78 228 78h42v105h268v-105h42q146 0 227 -77q77 -73 77 -194zM730 371q0 49 -26 80t-67 31h-15v-222h16q41 0 66.5 30.5t25.5 80.5zM378 260v222h-15
q-42 0 -67.5 -30.5t-25.5 -80.5q0 -49 26 -80t66 -31h16z" />
    <glyph glyph-name="Ocircumflex" unicode="&#x424;" horiz-adv-x="1000" 
d="M980 371q0 -129 -83.5 -200t-221.5 -71h-41v-112h-268v112h-41q-138 0 -220 69q-85 72 -85 202q0 120 76 193q82 78 228 78h42v105h268v-105h42q146 0 227 -77q77 -73 77 -194zM730 371q0 49 -26 80t-67 31h-15v-222h16q41 0 66.5 30.5t25.5 80.5zM378 260v222h-15
q-42 0 -67.5 -30.5t-25.5 -80.5q0 -49 26 -80t66 -31h16z" />
    <glyph glyph-name="Otilde" unicode="&#xd5;" horiz-adv-x="835" 
d="M846 0h-312l-128 237h-4l-121 -237h-292l248 359l-218 341h310l101 -207h4l111 207h283l-234 -341z" />
    <glyph glyph-name="Otilde" unicode="&#x425;" horiz-adv-x="835" 
d="M846 0h-312l-128 237h-4l-121 -237h-292l248 359l-218 341h310l101 -207h4l111 207h283l-234 -341z" />
    <glyph glyph-name="Odieresis" unicode="&#xd6;" horiz-adv-x="855" 
d="M835 -150h-268v150h-517v700h268v-500h175v500h268v-500h74v-350z" />
    <glyph glyph-name="Odieresis" unicode="&#x426;" horiz-adv-x="855" 
d="M835 -150h-268v150h-517v700h268v-500h175v500h268v-500h74v-350z" />
    <glyph glyph-name="multiply" unicode="&#xd7;" horiz-adv-x="798" 
d="M748 0h-268v241q-57 -10 -61 -11q-69 -11 -114 -11q-165 0 -228 88q-37 52 -37 134v259h268v-223q0 -37 29 -51q18 -9 46 -9q25 0 48.5 4.5t48.5 13.5v265h268v-700z" />
    <glyph glyph-name="multiply" unicode="&#x427;" horiz-adv-x="798" 
d="M748 0h-268v241q-57 -10 -61 -11q-69 -11 -114 -11q-165 0 -228 88q-37 52 -37 134v259h268v-223q0 -37 29 -51q18 -9 46 -9q25 0 48.5 4.5t48.5 13.5v265h268v-700z" />
    <glyph glyph-name="Oslash" unicode="&#xd8;" horiz-adv-x="1124" 
d="M1074 0h-1024v700h258v-500h125v500h258v-500h125v500h258v-700z" />
    <glyph glyph-name="Oslash" unicode="&#x428;" horiz-adv-x="1124" 
d="M1074 0h-1024v700h258v-500h125v500h258v-500h125v500h258v-700z" />
    <glyph glyph-name="Ugrave" unicode="&#xd9;" horiz-adv-x="1148" 
d="M1128 -150h-258v150h-820v700h258v-500h115v500h258v-500h115v500h258v-500h74v-350z" />
    <glyph glyph-name="Ugrave" unicode="&#x429;" horiz-adv-x="1148" 
d="M1128 -150h-258v150h-820v700h258v-500h115v500h258v-500h115v500h258v-500h74v-350z" />
    <glyph glyph-name="Uacute" unicode="&#xda;" horiz-adv-x="885" 
d="M856 249q0 -107 -68 -174q-77 -75 -219 -75h-419v498h-110v202h378v-202h151q142 0 218 -74q69 -67 69 -175zM586 249q0 42 -30.5 64.5t-89.5 22.5h-55v-174h54q47 0 74 12q47 21 47 75z" />
    <glyph glyph-name="Uacute" unicode="&#x42a;" horiz-adv-x="885" 
d="M856 249q0 -107 -68 -174q-77 -75 -219 -75h-419v498h-110v202h378v-202h151q142 0 218 -74q69 -67 69 -175zM586 249q0 42 -30.5 64.5t-89.5 22.5h-55v-174h54q47 0 74 12q47 21 47 75z" />
    <glyph glyph-name="Ucircumflex" unicode="&#xdb;" horiz-adv-x="1122" 
d="M1072 0h-268v700h268v-700zM749 249q0 -107 -68 -174q-76 -75 -216 -75h-415v700h268v-202h147q141 0 216 -74q68 -67 68 -175zM479 249q0 39 -22 60q-28 27 -91 27h-55v-174h54q57 0 85.5 21.5t28.5 65.5z" />
    <glyph glyph-name="Ucircumflex" unicode="&#x42b;" horiz-adv-x="1122" 
d="M1072 0h-268v700h268v-700zM749 249q0 -107 -68 -174q-76 -75 -216 -75h-415v700h268v-202h147q141 0 216 -74q68 -67 68 -175zM479 249q0 39 -22 60q-28 27 -91 27h-55v-174h54q57 0 85.5 21.5t28.5 65.5z" />
    <glyph glyph-name="Udieresis" unicode="&#xdc;" horiz-adv-x="786" 
d="M756 249q0 -107 -68 -174q-77 -75 -219 -75h-419v700h268v-202h151q142 0 218 -74q69 -67 69 -175zM486 249q0 42 -30.5 64.5t-89.5 22.5h-55v-174h54q47 0 74 12q47 21 47 75z" />
    <glyph glyph-name="Udieresis" unicode="&#x42c;" horiz-adv-x="786" 
d="M756 249q0 -107 -68 -174q-77 -75 -219 -75h-419v700h268v-202h151q142 0 218 -74q69 -67 69 -175zM486 249q0 42 -30.5 64.5t-89.5 22.5h-55v-174h54q47 0 74 12q47 21 47 75z" />
    <glyph glyph-name="Yacute" unicode="&#xdd;" horiz-adv-x="679" 
d="M649 350q0 -149 -96 -247q-112 -115 -322 -115q-55 0 -99.5 6.5t-101.5 21.5v186q40 -15 83.5 -23.5t79.5 -8.5q72 0 117 30t60 83h-242v143h242q-14 43 -45 69q-50 42 -138 42q-31 0 -71.5 -6.5t-85.5 -25.5v185l15 3q57 12 97.5 15.5t81.5 3.5q164 0 268 -63
q86 -52 126 -144q31 -71 31 -155z" />
    <glyph glyph-name="Yacute" unicode="&#x42d;" horiz-adv-x="679" 
d="M649 350q0 -149 -96 -247q-112 -115 -322 -115q-55 0 -99.5 6.5t-101.5 21.5v186q40 -15 83.5 -23.5t79.5 -8.5q72 0 117 30t60 83h-242v143h242q-14 43 -45 69q-50 42 -138 42q-31 0 -71.5 -6.5t-85.5 -25.5v185l15 3q57 12 97.5 15.5t81.5 3.5q164 0 268 -63
q86 -52 126 -144q31 -71 31 -155z" />
    <glyph glyph-name="Thorn" unicode="&#xde;" horiz-adv-x="1174" 
d="M1154 350q0 -169 -102.5 -265.5t-287.5 -96.5q-148 0 -248 71q-104 74 -120 199h-78v-258h-268v700h268v-242h81q21 121 127 190q99 64 238 64q185 0 287.5 -96.5t102.5 -265.5zM872 350q0 80 -16 124q-26 70 -92 70q-67 0 -92 -69q-16 -44 -16 -125q0 -80 16 -124
q26 -70 92 -70q67 0 92 69q16 44 16 125z" />
    <glyph glyph-name="Thorn" unicode="&#x42e;" horiz-adv-x="1174" 
d="M1154 350q0 -169 -102.5 -265.5t-287.5 -96.5q-148 0 -248 71q-104 74 -120 199h-78v-258h-268v700h268v-242h81q21 121 127 190q99 64 238 64q185 0 287.5 -96.5t102.5 -265.5zM872 350q0 80 -16 124q-26 70 -92 70q-67 0 -92 -69q-16 -44 -16 -125q0 -80 16 -124
q26 -70 92 -70q67 0 92 69q16 44 16 125z" />
    <glyph glyph-name="germandbls" unicode="&#xdf;" horiz-adv-x="788" 
d="M771 0h-268v244h-60q-41 0 -61.5 -18.5t-25.5 -50.5l-26 -175h-280l46 203q14 63 59 96q34 25 79 32q-72 13 -116 59q-48 50 -48 123q0 116 104 160q64 27 178 27h419v-700zM515 394v150h-70q-41 0 -63 -9q-42 -17 -42 -64q0 -38 27.5 -57.5t81.5 -19.5h66z" />
    <glyph glyph-name="germandbls" unicode="&#x42f;" horiz-adv-x="788" 
d="M771 0h-268v244h-60q-41 0 -61.5 -18.5t-25.5 -50.5l-26 -175h-280l46 203q14 63 59 96q34 25 79 32q-72 13 -116 59q-48 50 -48 123q0 116 104 160q64 27 178 27h419v-700zM515 394v150h-70q-41 0 -63 -9q-42 -17 -42 -64q0 -38 27.5 -57.5t81.5 -19.5h66z" />
    <glyph glyph-name="agrave" unicode="&#xe0;" horiz-adv-x="650" 
d="M614 0h-230v64h-4q-34 -45 -88 -63q-39 -13 -94 -13q-89 0 -138 46q-45 42 -45 111q0 83 57 127q47 37 131 49q49 7 146 7h35v16q0 36 -42 52q-32 12 -80 12q-26 0 -58 -5q-63 -10 -125 -36v137q58 15 122.5 23.5t124.5 8.5q122 0 196 -42q92 -52 92 -160v-334zM384 199
v29h-13q-65 0 -90.5 -14.5t-25.5 -48.5q0 -22 16 -36t43 -14q29 0 49.5 21t20.5 63z" />
    <glyph glyph-name="agrave" unicode="&#x430;" horiz-adv-x="650" 
d="M614 0h-230v64h-4q-34 -45 -88 -63q-39 -13 -94 -13q-89 0 -138 46q-45 42 -45 111q0 83 57 127q47 37 131 49q49 7 146 7h35v16q0 36 -42 52q-32 12 -80 12q-26 0 -58 -5q-63 -10 -125 -36v137q58 15 122.5 23.5t124.5 8.5q122 0 196 -42q92 -52 92 -160v-334zM384 199
v29h-13q-65 0 -90.5 -14.5t-25.5 -48.5q0 -22 16 -36t43 -14q29 0 49.5 21t20.5 63z" />
    <glyph glyph-name="aacute" unicode="&#xe1;" horiz-adv-x="705" 
d="M680 242q0 -130 -102 -197q-86 -57 -223 -57q-81 0 -135 17q-86 27 -134 97q-61 88 -61 240q0 119 32.5 200.5t103 129t194.5 61.5q86 8 131 12.5t74 11t68 23.5v-181q-30 -16 -62 -24q-22 -5 -81.5 -9.5t-103.5 -7.5t-82 -15q-63 -20 -90 -67q-18 -31 -18 -69v-15h7
q36 53 87 73.5t116 20.5q131 0 205 -65t74 -179zM410 242q0 46 -8 69q-12 35 -47 35q-34 0 -47 -35q-8 -22 -8 -69q0 -46 8 -69q12 -35 47 -35q34 0 47 35q8 22 8 69z" />
    <glyph glyph-name="aacute" unicode="&#x431;" horiz-adv-x="705" 
d="M680 242q0 -130 -102 -197q-86 -57 -223 -57q-81 0 -135 17q-86 27 -134 97q-61 88 -61 240q0 119 32.5 200.5t103 129t194.5 61.5q86 8 131 12.5t74 11t68 23.5v-181q-30 -16 -62 -24q-22 -5 -81.5 -9.5t-103.5 -7.5t-82 -15q-63 -20 -90 -67q-18 -31 -18 -69v-15h7
q36 53 87 73.5t116 20.5q131 0 205 -65t74 -179zM410 242q0 46 -8 69q-12 35 -47 35q-34 0 -47 -35q-8 -22 -8 -69q0 -46 8 -69q12 -35 47 -35q34 0 47 35q8 22 8 69z" />
    <glyph glyph-name="acircumflex" unicode="&#xe2;" horiz-adv-x="662" 
d="M626 144q0 -66 -51 -105t-138 -39h-387v525h390q70 0 113 -31q48 -35 48 -97q0 -56 -40 -90q-25 -21 -60 -30q48 -9 78 -32q47 -36 47 -101zM378 368q0 26 -18.5 35.5t-48.5 9.5h-31v-92h31q28 0 42 6q25 11 25 41zM388 164q0 32 -27 44q-18 8 -45 8h-36v-104h36
q29 0 46 8q26 12 26 44z" />
    <glyph glyph-name="acircumflex" unicode="&#x432;" horiz-adv-x="662" 
d="M626 144q0 -66 -51 -105t-138 -39h-387v525h390q70 0 113 -31q48 -35 48 -97q0 -56 -40 -90q-25 -21 -60 -30q48 -9 78 -32q47 -36 47 -101zM378 368q0 26 -18.5 35.5t-48.5 9.5h-31v-92h31q28 0 42 6q25 11 25 41zM388 164q0 32 -27 44q-18 8 -45 8h-36v-104h36
q29 0 46 8q26 12 26 44z" />
    <glyph glyph-name="atilde" unicode="&#xe3;" horiz-adv-x="521" 
d="M486 374h-184v-374h-252v525h436v-151z" />
    <glyph glyph-name="atilde" unicode="&#x433;" horiz-adv-x="521" 
d="M486 374h-184v-374h-252v525h436v-151z" />
    <glyph glyph-name="adieresis" unicode="&#xe4;" horiz-adv-x="739" 
d="M722 -145h-228v145h-251v-145h-228v295h62q42 40 55 98q8 35 8 104v172h511v-374h71v-295zM423 150v224h-84v-55q0 -54 -6 -83q-9 -46 -38 -86h128z" />
    <glyph glyph-name="adieresis" unicode="&#x434;" horiz-adv-x="739" 
d="M722 -145h-228v145h-251v-145h-228v295h62q42 40 55 98q8 35 8 104v172h511v-374h71v-295zM423 150v224h-84v-55q0 -54 -6 -83q-9 -46 -38 -86h128z" />
    <glyph glyph-name="aring" unicode="&#xe5;" horiz-adv-x="633" 
d="M616 201h-350q0 -34 24 -55q33 -28 104 -28q47 0 87 8t97 28v-136q-56 -15 -119 -22.5t-117 -7.5q-183 0 -265 100q-60 73 -60 183q0 121 84 193t219 72q120 0 196 -56q100 -74 100 -234v-45zM396 308v9q0 50 -22 75q-17 19 -43 19q-23 0 -39 -14q-26 -23 -26 -79v-10
h130z" />
    <glyph glyph-name="aring" unicode="&#x435;" horiz-adv-x="633" 
d="M616 201h-350q0 -34 24 -55q33 -28 104 -28q47 0 87 8t97 28v-136q-56 -15 -119 -22.5t-117 -7.5q-183 0 -265 100q-60 73 -60 183q0 121 84 193t219 72q120 0 196 -56q100 -74 100 -234v-45zM396 308v9q0 50 -22 75q-17 19 -43 19q-23 0 -39 -14q-26 -23 -26 -79v-10
h130z" />
    <glyph glyph-name="ae" unicode="&#xe6;" horiz-adv-x="1006" 
d="M996 0h-249l-127 231h-4v-231h-226v231h-4l-127 -231h-249l166 267l-166 258h250l126 -230h4v230h226v-230h4l126 230h250l-166 -258z" />
    <glyph glyph-name="ae" unicode="&#x436;" horiz-adv-x="1006" 
d="M996 0h-249l-127 231h-4v-231h-226v231h-4l-127 -231h-249l166 267l-166 258h250l126 -230h4v230h226v-230h4l126 230h250l-166 -258z" />
    <glyph glyph-name="ccedilla" unicode="&#xe7;" horiz-adv-x="571" 
d="M554 155q0 -65 -56 -108q-77 -59 -244 -59q-76 0 -127.5 8t-106.5 24v138q41 -17 89 -29t89 -12q48 0 69 16.5t21 37.5q0 28 -27 39q-18 7 -47 7h-85v100h98q39 0 55 16q11 11 11 27q0 21 -18 33q-22 15 -68 15q-41 0 -83 -7.5t-92 -32.5v136q63 18 124 25t121 7
q143 0 207 -53q46 -38 46 -94q0 -39 -20 -69q-23 -34 -68 -45q50 -8 81 -41t31 -79z" />
    <glyph glyph-name="ccedilla" unicode="&#x437;" horiz-adv-x="571" 
d="M554 155q0 -65 -56 -108q-77 -59 -244 -59q-76 0 -127.5 8t-106.5 24v138q41 -17 89 -29t89 -12q48 0 69 16.5t21 37.5q0 28 -27 39q-18 7 -47 7h-85v100h98q39 0 55 16q11 11 11 27q0 21 -18 33q-22 15 -68 15q-41 0 -83 -7.5t-92 -32.5v136q63 18 124 25t121 7
q143 0 207 -53q46 -38 46 -94q0 -39 -20 -69q-23 -34 -68 -45q50 -8 81 -41t31 -79z" />
    <glyph glyph-name="egrave" unicode="&#xe8;" horiz-adv-x="699" 
d="M649 0h-230v245h-5l-115 -245h-249v524h230v-245h5l117 245h247v-524z" />
    <glyph glyph-name="egrave" unicode="&#x438;" horiz-adv-x="699" 
d="M649 0h-230v245h-5l-115 -245h-249v524h230v-245h5l117 245h247v-524z" />
    <glyph glyph-name="eacute" unicode="&#xe9;" horiz-adv-x="699" 
d="M548 732q-8 -63 -53 -100q-53 -44 -146 -44q-92 0 -145 44q-46 38 -54 100l106 25q0 -22 16 -37q24 -22 77 -22q40 0 64 13q29 16 29 46zM649 0h-230v245h-5l-115 -245h-249v524h230v-245h5l117 245h247v-524z" />
    <glyph glyph-name="eacute" unicode="&#x439;" horiz-adv-x="699" 
d="M548 732q-8 -63 -53 -100q-53 -44 -146 -44q-92 0 -145 44q-46 38 -54 100l106 25q0 -22 16 -37q24 -22 77 -22q40 0 64 13q29 16 29 46zM649 0h-230v245h-5l-115 -245h-249v524h230v-245h5l117 245h247v-524z" />
    <glyph glyph-name="ecircumflex" unicode="&#xea;" horiz-adv-x="733" 
d="M723 0h-277l-144 231h-4v-231h-248v524h248v-229h4l143 229h278l-180 -257z" />
    <glyph glyph-name="ecircumflex" unicode="&#x43a;" horiz-adv-x="733" 
d="M723 0h-277l-144 231h-4v-231h-248v524h248v-229h4l143 229h278l-180 -257z" />
    <glyph glyph-name="edieresis" unicode="&#xeb;" horiz-adv-x="712" 
d="M662 0h-252v374h-86v-90q0 -175 -37 -235.5t-146 -60.5q-40 0 -70.5 3.5t-65.5 13.5l5 135q17 -7 40 -7q33 0 44 35q8 26 8 88v48v220h560v-524z" />
    <glyph glyph-name="edieresis" unicode="&#x43b;" horiz-adv-x="712" 
d="M662 0h-252v374h-86v-90q0 -175 -37 -235.5t-146 -60.5q-40 0 -70.5 3.5t-65.5 13.5l5 135q17 -7 40 -7q33 0 44 35q8 26 8 88v48v220h560v-524z" />
    <glyph glyph-name="igrave" unicode="&#xec;" horiz-adv-x="836" 
d="M786 0h-200v328h-6l-94 -328h-136l-94 328h-6v-328h-200v524h300l65 -227h6l65 227h300v-524z" />
    <glyph glyph-name="igrave" unicode="&#x43c;" horiz-adv-x="836" 
d="M786 0h-200v328h-6l-94 -328h-136l-94 328h-6v-328h-200v524h300l65 -227h6l65 227h300v-524z" />
    <glyph glyph-name="iacute" unicode="&#xed;" horiz-adv-x="694" 
d="M644 0h-252v193h-90v-193h-252v524h252v-181h90v181h252v-524z" />
    <glyph glyph-name="iacute" unicode="&#x43d;" horiz-adv-x="694" 
d="M644 0h-252v193h-90v-193h-252v524h252v-181h90v181h252v-524z" />
    <glyph glyph-name="icircumflex" unicode="&#xee;" horiz-adv-x="690" 
d="M670 262q0 -127 -87.5 -200.5t-237.5 -73.5t-237.5 73t-87.5 201q0 127 87.5 200.5t237.5 73.5t237.5 -73t87.5 -201zM400 262q0 58 -7 82q-12 42 -48 42t-48 -41q-7 -24 -7 -83q0 -58 7 -82q12 -42 48 -42t48 41q7 24 7 83z" />
    <glyph glyph-name="icircumflex" unicode="&#x43e;" horiz-adv-x="690" 
d="M670 262q0 -127 -87.5 -200.5t-237.5 -73.5t-237.5 73t-87.5 201q0 127 87.5 200.5t237.5 73.5t237.5 -73t87.5 -201zM400 262q0 58 -7 82q-12 42 -48 42t-48 -41q-7 -24 -7 -83q0 -58 7 -82q12 -42 48 -42t48 41q7 24 7 83z" />
    <glyph glyph-name="idieresis" unicode="&#xef;" horiz-adv-x="694" 
d="M644 0h-252v374h-90v-374h-252v524h594v-524z" />
    <glyph glyph-name="idieresis" unicode="&#x43f;" horiz-adv-x="694" 
d="M644 0h-252v374h-90v-374h-252v524h594v-524z" />
    <glyph glyph-name="eth" unicode="&#xf0;" horiz-adv-x="711" 
d="M691 253q0 -135 -73 -205q-62 -60 -156 -60q-105 0 -160 79v-286h-252v743h234v-89h4q50 101 166 101q95 0 157 -56q80 -73 80 -227zM421 255q0 43 -10 70q-15 41 -53 41t-53 -40q-10 -26 -10 -71q0 -43 10 -70q15 -41 53 -41t53 40q10 26 10 71z" />
    <glyph glyph-name="eth" unicode="&#x440;" horiz-adv-x="711" 
d="M691 253q0 -135 -73 -205q-62 -60 -156 -60q-105 0 -160 79v-286h-252v743h234v-89h4q50 101 166 101q95 0 157 -56q80 -73 80 -227zM421 255q0 43 -10 70q-15 41 -53 41t-53 -40q-10 -26 -10 -71q0 -43 10 -70q15 -41 53 -41t53 40q10 26 10 71z" />
    <glyph glyph-name="ntilde" unicode="&#xf1;" horiz-adv-x="559" 
d="M532 14q-47 -14 -94 -20t-95 -6q-159 0 -245 82q-79 75 -79 195q0 107 64 178q84 93 257 93q61 0 110 -7q28 -4 78 -17v-150q-30 13 -59.5 18.5t-48.5 5.5q-58 0 -94.5 -33.5t-36.5 -91.5q0 -55 35 -89t95 -34q24 0 49.5 5t63.5 22v-151z" />
    <glyph glyph-name="ntilde" unicode="&#x441;" horiz-adv-x="559" 
d="M532 14q-47 -14 -94 -20t-95 -6q-159 0 -245 82q-79 75 -79 195q0 107 64 178q84 93 257 93q61 0 110 -7q28 -4 78 -17v-150q-30 13 -59.5 18.5t-48.5 5.5q-58 0 -94.5 -33.5t-36.5 -91.5q0 -55 35 -89t95 -34q24 0 49.5 5t63.5 22v-151z" />
    <glyph glyph-name="ograve" unicode="&#xf2;" horiz-adv-x="552" 
d="M542 374h-140v-374h-252v374h-140v150h532v-150z" />
    <glyph glyph-name="ograve" unicode="&#x442;" horiz-adv-x="552" 
d="M542 374h-140v-374h-252v374h-140v150h532v-150z" />
    <glyph glyph-name="oacute" unicode="&#xf3;" horiz-adv-x="625" 
d="M633 524l-177 -545q-32 -99 -86 -148q-68 -62 -184 -62q-37 0 -79.5 5t-83.5 15v146q38 -10 77 -10q38 0 58 17q13 11 18 28l5 17l-194 537h261l72 -330l66 330h247z" />
    <glyph glyph-name="oacute" unicode="&#x443;" horiz-adv-x="625" 
d="M633 524l-177 -545q-32 -99 -86 -148q-68 -62 -184 -62q-37 0 -79.5 5t-83.5 15v146q38 -10 77 -10q38 0 58 17q13 11 18 28l5 17l-194 537h261l72 -330l66 330h247z" />
    <glyph glyph-name="ocircumflex" unicode="&#xf4;" horiz-adv-x="950" 
d="M930 262q0 -148 -70 -219q-54 -55 -133 -55q-32 0 -65 12t-61 38v-257h-252v257q-29 -27 -61 -38.5t-65 -11.5q-79 0 -132 54q-71 72 -71 220t70 219q54 55 133 55q32 0 65 -12t61 -38v246h252v-246q29 27 61 38.5t65 11.5q79 0 132 -54q71 -72 71 -220zM682 262
q0 52 -8 79q-12 42 -43 42q-11 0 -22.5 -4t-24.5 -19v-196q13 -15 24.5 -19t22.5 -4q23 0 37 27.5t14 93.5zM366 164v196q-13 15 -24.5 19t-22.5 4q-23 0 -37 -27.5t-14 -93.5q0 -52 8 -79q12 -42 43 -42q11 0 22.5 4t24.5 19z" />
    <glyph glyph-name="ocircumflex" unicode="&#x444;" horiz-adv-x="950" 
d="M930 262q0 -148 -70 -219q-54 -55 -133 -55q-32 0 -65 12t-61 38v-257h-252v257q-29 -27 -61 -38.5t-65 -11.5q-79 0 -132 54q-71 72 -71 220t70 219q54 55 133 55q32 0 65 -12t61 -38v246h252v-246q29 27 61 38.5t65 11.5q79 0 132 -54q71 -72 71 -220zM682 262
q0 52 -8 79q-12 42 -43 42q-11 0 -22.5 -4t-24.5 -19v-196q13 -15 24.5 -19t22.5 -4q23 0 37 27.5t14 93.5zM366 164v196q-13 15 -24.5 19t-22.5 4q-23 0 -37 -27.5t-14 -93.5q0 -52 8 -79q12 -42 43 -42q11 0 22.5 4t24.5 19z" />
    <glyph glyph-name="otilde" unicode="&#xf5;" horiz-adv-x="671" 
d="M683 0h-269l-81 176h-4l-82 -176h-259l172 282l-160 242h267l69 -163h4l67 163h249l-146 -238z" />
    <glyph glyph-name="otilde" unicode="&#x445;" horiz-adv-x="671" 
d="M683 0h-269l-81 176h-4l-82 -176h-259l172 282l-160 242h267l69 -163h4l67 163h249l-146 -238z" />
    <glyph glyph-name="odieresis" unicode="&#xf6;" horiz-adv-x="732" 
d="M715 -145h-228v145h-437v524h252v-374h90v374h252v-374h71v-295z" />
    <glyph glyph-name="odieresis" unicode="&#x446;" horiz-adv-x="732" 
d="M715 -145h-228v145h-437v524h252v-374h90v374h252v-374h71v-295z" />
    <glyph glyph-name="divide" unicode="&#xf7;" horiz-adv-x="674" 
d="M624 0h-252v184q-70 -20 -140 -20q-82 0 -131 33q-61 41 -61 128v199h252v-183q0 -10 2 -16q7 -21 37 -21q20 0 41 12v208h252v-524z" />
    <glyph glyph-name="divide" unicode="&#x447;" horiz-adv-x="674" 
d="M624 0h-252v184q-70 -20 -140 -20q-82 0 -131 33q-61 41 -61 128v199h252v-183q0 -10 2 -16q7 -21 37 -21q20 0 41 12v208h252v-524z" />
    <glyph glyph-name="oslash" unicode="&#xf8;" horiz-adv-x="955" 
d="M915 0h-865v524h235v-374h80v374h235v-374h80v374h235v-524z" />
    <glyph glyph-name="oslash" unicode="&#x448;" horiz-adv-x="955" 
d="M915 0h-865v524h235v-374h80v374h235v-374h80v374h235v-524z" />
    <glyph glyph-name="ugrave" unicode="&#xf9;" horiz-adv-x="1003" 
d="M986 -145h-228v145h-708v524h235v-374h80v374h235v-374h80v374h235v-374h71v-295z" />
    <glyph glyph-name="ugrave" unicode="&#x449;" horiz-adv-x="1003" 
d="M986 -145h-228v145h-708v524h235v-374h80v374h235v-374h80v374h235v-374h71v-295z" />
    <glyph glyph-name="uacute" unicode="&#xfa;" horiz-adv-x="727" 
d="M707 181q0 -77 -45 -122q-58 -59 -192 -59h-355v369h-105v155h357v-167q45 5 92 5q137 0 200 -62q48 -47 48 -119zM454 185q0 22 -11 35q-18 22 -60 22h-21v-118h21q39 0 57 21q14 16 14 40z" />
    <glyph glyph-name="uacute" unicode="&#x44a;" horiz-adv-x="727" 
d="M707 181q0 -77 -45 -122q-58 -59 -192 -59h-355v369h-105v155h357v-167q45 5 92 5q137 0 200 -62q48 -47 48 -119zM454 185q0 22 -11 35q-18 22 -60 22h-21v-118h21q39 0 57 21q14 16 14 40z" />
    <glyph glyph-name="ucircumflex" unicode="&#xfb;" horiz-adv-x="995" 
d="M945 0h-252v524h252v-524zM642 178q0 -74 -44 -118q-60 -60 -193 -60h-355v524h252v-167q47 5 86 5q120 0 187 -47.5t67 -136.5zM389 185q0 22 -11 35q-18 22 -60 22h-21v-118h21q39 0 57 21q14 16 14 40z" />
    <glyph glyph-name="ucircumflex" unicode="&#x44b;" horiz-adv-x="995" 
d="M945 0h-252v524h252v-524zM642 178q0 -74 -44 -118q-60 -60 -193 -60h-355v524h252v-167q47 5 86 5q120 0 187 -47.5t67 -136.5zM389 185q0 22 -11 35q-18 22 -60 22h-21v-118h21q39 0 57 21q14 16 14 40z" />
    <glyph glyph-name="udieresis" unicode="&#xfc;" horiz-adv-x="662" 
d="M642 178q0 -74 -44 -118q-60 -60 -193 -60h-355v524h252v-167q47 5 86 5q120 0 187 -47.5t67 -136.5zM389 185q0 22 -11 35q-18 22 -60 22h-21v-118h21q39 0 57 21q14 16 14 40z" />
    <glyph glyph-name="udieresis" unicode="&#x44c;" horiz-adv-x="662" 
d="M642 178q0 -74 -44 -118q-60 -60 -193 -60h-355v524h252v-167q47 5 86 5q120 0 187 -47.5t67 -136.5zM389 185q0 22 -11 35q-18 22 -60 22h-21v-118h21q39 0 57 21q14 16 14 40z" />
    <glyph glyph-name="yacute" unicode="&#xfd;" horiz-adv-x="562" 
d="M543 269q0 -121 -76 -197q-85 -84 -242 -84q-51 0 -96.5 6t-101.5 26v138q65 -35 134 -35q53 0 88 26t41 71h-189v94h189q-12 44 -47 65.5t-89 21.5q-32 0 -63 -8.5t-60 -24.5v136q36 12 76 20q60 12 121 12q154 0 239 -81q76 -73 76 -186z" />
    <glyph glyph-name="yacute" unicode="&#x44d;" horiz-adv-x="562" 
d="M543 269q0 -121 -76 -197q-85 -84 -242 -84q-51 0 -96.5 6t-101.5 26v138q65 -35 134 -35q53 0 88 26t41 71h-189v94h189q-12 44 -47 65.5t-89 21.5q-32 0 -63 -8.5t-60 -24.5v136q36 12 76 20q60 12 121 12q154 0 239 -81q76 -73 76 -186z" />
    <glyph glyph-name="thorn" unicode="&#xfe;" horiz-adv-x="989" 
d="M969 262q0 -127 -85.5 -200.5t-232.5 -73.5q-119 0 -195.5 53t-95.5 149h-58v-190h-252v524h252v-184h59q30 120 138 168q64 28 152 28q147 0 232.5 -73.5t85.5 -200.5zM706 262q0 58 -7 82q-12 42 -48 42t-48 -41q-7 -24 -7 -83q0 -58 7 -82q12 -42 48 -42t48 41
q7 24 7 83z" />
    <glyph glyph-name="thorn" unicode="&#x44e;" horiz-adv-x="989" 
d="M969 262q0 -127 -85.5 -200.5t-232.5 -73.5q-119 0 -195.5 53t-95.5 149h-58v-190h-252v524h252v-184h59q30 120 138 168q64 28 152 28q147 0 232.5 -73.5t85.5 -200.5zM706 262q0 58 -7 82q-12 42 -48 42t-48 -41q-7 -24 -7 -83q0 -58 7 -82q12 -42 48 -42t48 41
q7 24 7 83z" />
    <glyph glyph-name="ydieresis" unicode="&#xff;" horiz-adv-x="671" 
d="M621 0h-252v174h-27l-63 -174h-259l106 208q-44 13 -70 47t-26 85q0 72 38 117q57 67 190 67h363v-524zM374 282v118h-21q-36 0 -53 -21q-13 -16 -13 -40q0 -21 11 -35q17 -22 55 -22h21z" />
    <glyph glyph-name="ydieresis" unicode="&#x44f;" horiz-adv-x="671" 
d="M621 0h-252v174h-27l-63 -174h-259l106 208q-44 13 -70 47t-26 85q0 72 38 117q57 67 190 67h363v-524zM374 282v118h-21q-36 0 -53 -21q-13 -16 -13 -40q0 -21 11 -35q17 -22 55 -22h21z" />
  </font>
</defs>
</svg>
